<svg version="1.1" id="Layer_1" xmlns="http://www.w3.org/2000/svg" xmlns:xlink="http://www.w3.org/1999/xlink" x="0px" y="0px"
	 width="100%" viewBox="0 0 500 500" enable-background="new 0 0 500 500" xml:space="preserve">
<path fill="#FFFFFF" opacity="1.000000" stroke="none" 
	d="
M1.000003,371.000000 
	C1.000000,309.979095 1.000000,248.958206 1.306407,187.329010 
	C5.221386,182.177170 8.840621,177.642044 12.436737,173.088654 
	C30.643887,150.034821 48.844620,126.975906 67.048424,103.919426 
	C81.447762,85.681587 95.873138,67.464233 110.240776,49.201462 
	C122.860489,33.160507 135.416092,17.069117 148.000000,1.000000 
	C194.354233,1.000000 240.708450,1.000000 287.512695,1.347665 
	C283.470734,7.210375 278.859344,12.632967 274.506378,18.255651 
	C248.621063,51.691513 222.765991,85.150963 196.990021,118.671097 
	C194.018173,122.535820 191.598297,126.824974 188.677826,130.930939 
	C188.161728,131.094650 187.890305,131.244781 187.618881,131.394913 
	C188.094513,131.283234 188.570129,131.171555 189.465393,131.040344 
	C196.650269,129.213699 203.310852,129.402054 210.106171,132.282776 
	C214.237350,136.338104 218.103836,140.178207 222.043747,144.383667 
	C231.933868,164.353729 218.644928,193.873291 191.617584,190.979004 
	C186.175186,188.214096 181.087967,185.554169 175.861694,182.589218 
	C170.270264,175.630188 167.263062,167.923370 166.415192,158.378113 
	C158.517868,168.439056 151.287659,177.508652 144.209610,186.695465 
	C127.090706,208.914642 110.099602,231.232407 92.952782,253.429932 
	C67.893768,285.870300 42.773743,318.263733 17.607986,350.621399 
	C12.229583,357.536835 6.544049,364.213379 1.000003,371.000000 
z"/>
<path fill="#BBDEE3" opacity="1.000000" stroke="none" 
	d="
M479.000000,0.999995 
	C486.306946,1.000000 493.613861,1.000000 501.000000,1.000000 
	C501.000000,34.020855 501.000000,67.041771 500.698914,100.683060 
	C491.295166,113.973312 482.198151,126.647278 473.088654,139.312256 
	C447.206482,175.296539 421.342743,211.294144 395.421173,247.250061 
	C386.307343,259.891907 377.046936,272.428070 367.605103,284.726898 
	C364.060120,265.263184 359.097778,246.533905 351.753723,228.501099 
	C347.442444,217.915009 342.710876,207.500107 338.456177,196.848053 
	C339.838684,195.445572 341.043701,194.283127 342.010498,192.948181 
	C349.309784,182.869553 356.570221,172.762726 363.827728,162.653915 
	C381.246704,138.391342 398.647705,114.115898 416.074463,89.858932 
	C430.983521,69.106377 445.981812,48.417572 460.811554,27.608561 
	C467.045532,18.861032 472.947205,9.876671 479.000000,0.999995 
z"/>
<path fill="#FEFFFF" opacity="1.000000" stroke="none" 
	d="
M367.853485,285.012512 
	C377.046936,272.428070 386.307343,259.891907 395.421173,247.250061 
	C421.342743,211.294144 447.206482,175.296539 473.088654,139.312256 
	C482.198151,126.647278 491.295166,113.973312 500.698914,101.151718 
	C501.000000,140.354233 501.000000,179.708450 500.727966,219.722916 
	C475.474457,255.635986 450.500977,290.894501 425.508820,326.139740 
	C407.534088,351.488739 389.488251,376.787476 371.578918,402.182495 
	C367.213745,408.372253 363.260040,414.852142 358.862366,421.438538 
	C357.077576,422.511017 355.547546,423.343628 353.977051,424.198273 
	C352.573181,408.099457 351.219604,392.577637 350.050659,376.761047 
	C360.431183,361.449738 367.227081,345.050964 368.074066,326.842072 
	C368.721100,312.932404 367.978149,298.958069 367.853485,285.012512 
z"/>
<path fill="#209765" opacity="1.000000" stroke="none" 
	d="
M48.000000,501.000000 
	C42.311958,501.000000 36.623920,501.000000 30.497456,500.565186 
	C29.482224,495.509460 28.727325,490.902710 28.360022,486.265228 
	C26.916582,468.040955 33.822453,456.297363 54.313278,456.131226 
	C59.087437,456.092499 63.862179,456.125488 68.860779,456.125488 
	C68.860779,454.365326 68.857307,452.415833 68.861351,450.466370 
	C68.883049,440.006622 68.076553,429.463806 69.113693,419.105591 
	C70.908424,401.181274 76.638779,384.677795 90.490196,372.004852 
	C94.484833,368.350098 98.226891,367.892426 102.558380,371.024994 
	C106.335442,373.756622 110.044540,376.600067 113.961716,379.117004 
	C130.029572,389.441254 144.690384,401.393799 157.264252,416.237122 
	C161.259216,422.034149 165.163422,427.510162 169.108978,433.343018 
	C171.970444,439.787048 174.790543,445.874146 177.657227,452.061798 
	C181.921143,443.661224 186.035217,435.332153 190.355362,427.111389 
	C194.180969,419.831696 201.041107,418.539307 207.283676,423.899384 
	C209.798721,426.058838 211.930862,428.657837 214.327652,430.962860 
	C219.429718,435.869598 224.590897,440.714874 229.034576,444.928040 
	C233.185944,435.998901 237.572342,426.564240 242.429474,417.111603 
	C249.605545,417.111084 256.310883,417.128540 262.977417,417.491333 
	C258.386475,425.689667 253.298477,433.287689 249.412537,441.457520 
	C244.082397,452.663635 243.827072,463.398224 252.165009,474.265778 
	C258.301056,482.263367 262.138336,492.024628 267.000000,501.000000 
	C260.312347,501.000000 253.624710,501.000000 246.440872,500.639038 
	C244.484161,497.496002 243.385803,494.436005 241.500732,491.979797 
	C233.143967,481.091034 224.743362,470.224640 215.981094,459.663361 
	C211.809753,454.635620 206.794464,450.308136 201.571671,445.072113 
	C192.173080,463.420441 182.737152,480.493073 184.000000,501.000000 
	C150.979111,501.000000 117.958214,501.000000 84.328262,500.679321 
	C80.836647,493.512512 78.061447,486.617584 74.989616,479.857483 
	C74.295441,478.329865 72.680107,476.321960 71.298935,476.160583 
	C65.251877,475.454224 59.132008,475.392395 53.044445,475.004395 
	C48.512665,474.715515 46.676762,476.844818 46.946407,481.245209 
	C47.349728,487.826935 47.653744,494.414764 48.000000,501.000000 
z"/>
<path fill="#BBDEE3" opacity="1.000000" stroke="none" 
	d="
M347.000000,1.000000 
	C383.020905,1.000000 419.041779,1.000000 455.400146,1.316556 
	C454.684509,3.325419 453.723358,5.083632 452.564606,6.700213 
	C433.911011,32.724030 415.263000,58.751968 396.549835,84.732933 
	C380.552216,106.943626 364.420685,129.057999 348.455322,151.291763 
	C341.788177,160.576630 335.397705,170.060196 328.600525,179.224045 
	C327.616669,178.068970 326.802948,177.207169 326.226898,176.208298 
	C310.706116,149.295517 292.007843,124.687126 272.167328,100.995941 
	C273.614868,99.643684 274.861755,98.523514 275.850342,97.209091 
	C295.581390,70.974533 315.322906,44.747654 334.957764,18.441193 
	C339.180725,12.783370 342.996613,6.821704 347.000000,1.000000 
z"/>
<path fill="#209765" opacity="1.000000" stroke="none" 
	d="
M349.866028,377.055847 
	C351.219604,392.577637 352.573181,408.099457 353.977051,424.198273 
	C355.547546,423.343628 357.077576,422.511017 359.230713,421.404724 
	C365.668762,418.731476 371.314026,415.719604 377.331818,414.051971 
	C392.754517,409.778137 408.342773,406.101746 424.309082,402.175812 
	C433.190094,401.731110 435.533478,403.201721 438.908386,411.512817 
	C438.889923,426.238739 438.889923,440.511810 438.889923,455.200897 
	C447.911804,451.743073 456.786072,448.070282 465.846924,444.937225 
	C477.348022,440.960449 485.455048,446.259247 487.144318,458.368683 
	C489.190765,473.038727 485.890564,487.052338 482.000000,501.000000 
	C475.978851,501.000000 469.957703,501.000000 463.455231,500.593567 
	C464.122833,495.527832 465.526337,490.913635 466.361359,486.198700 
	C467.634613,479.009521 468.514618,471.750702 469.563446,464.508606 
	C467.638519,464.215302 467.090698,463.955475 466.676910,464.094513 
	C455.816437,467.744019 444.961365,471.410431 434.137512,475.166443 
	C433.301666,475.456512 432.416992,476.292297 432.036285,477.100983 
	C428.299133,485.039825 424.664062,493.026733 421.000000,501.000000 
	C379.979095,501.000000 338.958221,501.000000 297.470428,500.584595 
	C300.392456,476.781464 311.833160,457.612488 328.946564,441.944611 
	C334.441833,436.913544 335.223022,431.502838 334.888947,425.181091 
	C334.355225,415.082794 333.566345,404.997986 333.063019,394.627045 
	C338.782471,388.583008 344.324249,382.819427 349.866028,377.055847 
z"/>
<path fill="#BADEE2" opacity="1.000000" stroke="none" 
	d="
M157.173523,415.916046 
	C144.690384,401.393799 130.029572,389.441254 113.961716,379.117004 
	C110.044540,376.600067 106.335442,373.756622 102.558380,371.024994 
	C98.226891,367.892426 94.484833,368.350098 90.490196,372.004852 
	C76.638779,384.677795 70.908424,401.181274 69.113693,419.105591 
	C68.076553,429.463806 68.883049,440.006622 68.861351,450.466370 
	C68.857307,452.415833 68.860779,454.365326 68.860779,456.125488 
	C63.862179,456.125488 59.087437,456.092499 54.313278,456.131226 
	C33.822453,456.297363 26.916582,468.040955 28.360022,486.265228 
	C28.727325,490.902710 29.482224,495.509460 30.029518,500.565186 
	C20.395962,501.000000 10.791924,501.000000 1.000000,501.000000 
	C1.000000,488.313049 1.000000,475.625183 1.309835,462.334625 
	C6.861318,454.878967 12.153344,448.063873 17.336449,441.166870 
	C51.857468,395.231140 86.324364,349.254608 120.890884,303.353149 
	C126.643509,295.714111 132.797119,288.377045 138.856537,281.326080 
	C138.759415,283.226685 138.592728,284.704742 138.379684,286.176086 
	C135.666779,304.913208 135.952606,323.605438 140.228043,342.054291 
	C145.155167,363.315338 156.669144,380.652283 173.098358,395.132202 
	C170.292984,399.428467 167.715897,403.468506 164.808990,407.255341 
	C162.470871,410.301147 159.733643,413.040619 157.173523,415.916046 
z"/>
<path fill="#BCDEE3" opacity="1.000000" stroke="none" 
	d="
M1.000003,371.468658 
	C6.544049,364.213379 12.229583,357.536835 17.607986,350.621399 
	C42.773743,318.263733 67.893768,285.870300 92.952782,253.429932 
	C110.099602,231.232407 127.090706,208.914642 144.209610,186.695465 
	C151.287659,177.508652 158.517868,168.439056 166.415192,158.378113 
	C167.263062,167.923370 170.270264,175.630188 175.707764,182.901932 
	C169.888123,195.087463 164.083359,206.655258 158.099625,218.032440 
	C157.627121,218.257751 157.333603,218.673660 157.069305,219.055283 
	C157.098526,219.020981 157.175323,219.068115 156.823151,219.059860 
	C155.030365,220.615326 153.448608,222.072311 152.172363,223.760300 
	C144.562561,233.825226 137.035385,243.952545 129.458313,254.042267 
	C92.575577,303.155853 55.707916,352.280792 18.775612,401.357117 
	C13.006977,409.022583 6.932845,416.458130 0.999992,424.000000 
	C1.000000,406.645782 1.000000,389.291534 1.000003,371.468658 
z"/>
<path fill="#BBDEE3" opacity="1.000000" stroke="none" 
	d="
M147.531342,1.000000 
	C135.416092,17.069117 122.860489,33.160507 110.240776,49.201462 
	C95.873138,67.464233 81.447762,85.681587 67.048424,103.919426 
	C48.844620,126.975906 30.643887,150.034821 12.436737,173.088654 
	C8.840621,177.642044 5.221386,182.177170 1.306407,186.860352 
	C1.000000,165.645767 1.000000,144.291550 1.307309,122.327911 
	C11.407789,108.811249 21.271118,95.956474 30.977915,82.984573 
	C46.045567,62.848583 61.058857,42.671337 75.984306,22.429811 
	C81.159256,15.411683 86.004280,8.150284 91.000000,0.999999 
	C109.687561,1.000000 128.375122,1.000000 147.531342,1.000000 
z"/>
<path fill="#BBDEE3" opacity="1.000000" stroke="none" 
	d="
M423.864838,402.186462 
	C408.342773,406.101746 392.754517,409.778137 377.331818,414.051971 
	C371.314026,415.719604 365.668762,418.731476 359.485474,421.164856 
	C363.260040,414.852142 367.213745,408.372253 371.578918,402.182495 
	C389.488251,376.787476 407.534088,351.488739 425.508820,326.139740 
	C450.500977,290.894501 475.474457,255.635986 500.727966,220.191574 
	C501.000000,242.687561 501.000000,265.375122 500.687622,288.661987 
	C494.565277,297.552277 488.694427,305.801361 482.956879,314.142151 
	C466.384766,338.233521 449.816376,362.327881 433.367432,386.503296 
	C429.933716,391.549927 427.018829,396.949554 423.864838,402.186462 
z"/>
<path fill="#BADEE2" opacity="1.000000" stroke="none" 
	d="
M482.469360,501.000000 
	C485.890564,487.052338 489.190765,473.038727 487.144318,458.368683 
	C485.455048,446.259247 477.348022,440.960449 465.846924,444.937225 
	C456.786072,448.070282 447.911804,451.743073 438.889923,455.200897 
	C438.889923,440.511810 438.889923,426.238739 439.208557,411.344482 
	C452.992096,391.185089 466.432892,371.630249 479.931854,352.115631 
	C486.901337,342.040253 493.973999,332.036285 501.000000,322.000000 
	C501.000000,381.666687 501.000000,441.333374 501.000000,501.000000 
	C494.912109,501.000000 488.925415,501.000000 482.469360,501.000000 
z"/>
<path fill="#3DC389" opacity="1.000000" stroke="none" 
	d="
M332.885345,394.907471 
	C333.566345,404.997986 334.355225,415.082794 334.888947,425.181091 
	C335.223022,431.502838 334.441833,436.913544 328.946564,441.944611 
	C311.833160,457.612488 300.392456,476.781464 297.001770,500.584595 
	C287.312439,501.000000 277.624878,501.000000 267.468658,501.000000 
	C262.138336,492.024628 258.301056,482.263367 252.165009,474.265778 
	C243.827072,463.398224 244.082397,452.663635 249.412537,441.457520 
	C253.298477,433.287689 258.386475,425.689667 263.430420,417.445984 
	C277.776886,416.763397 291.521332,414.985657 304.333038,409.815033 
	C314.242004,405.815918 323.395813,399.945770 332.885345,394.907471 
z"/>
<path fill="#FEFEFF" opacity="1.000000" stroke="none" 
	d="
M0.999992,424.468658 
	C6.932845,416.458130 13.006977,409.022583 18.775612,401.357117 
	C55.707916,352.280792 92.575577,303.155853 129.458313,254.042267 
	C137.035385,243.952545 144.562561,233.825226 152.172363,223.760300 
	C153.448608,222.072311 155.030365,220.615326 156.762482,219.448425 
	C154.696564,226.520020 152.023590,233.102951 150.048141,239.888931 
	C146.085602,253.500732 142.504166,267.223480 138.765442,280.900421 
	C132.797119,288.377045 126.643509,295.714111 120.890884,303.353149 
	C86.324364,349.254608 51.857468,395.231140 17.336449,441.166870 
	C12.153344,448.063873 6.861318,454.878967 1.309835,461.865967 
	C1.000000,449.645782 1.000000,437.291534 0.999992,424.468658 
z"/>
<path fill="#94CAD1" opacity="1.000000" stroke="none" 
	d="
M328.881439,179.453415 
	C335.397705,170.060196 341.788177,160.576630 348.455322,151.291763 
	C364.420685,129.057999 380.552216,106.943626 396.549835,84.732933 
	C415.263000,58.751968 433.911011,32.724030 452.564606,6.700213 
	C453.723358,5.083632 454.684509,3.325419 455.868805,1.316556 
	C463.354248,1.000000 470.708496,1.000000 478.531372,0.999995 
	C472.947205,9.876671 467.045532,18.861032 460.811554,27.608561 
	C445.981812,48.417572 430.983521,69.106377 416.074463,89.858932 
	C398.647705,114.115898 381.246704,138.391342 363.827728,162.653915 
	C356.570221,172.762726 349.309784,182.869553 342.010498,192.948181 
	C341.043701,194.283127 339.838684,195.445572 338.153320,196.666382 
	C334.668945,190.914368 331.775177,185.183884 328.881439,179.453415 
z"/>
<path fill="#BBDEE3" opacity="1.000000" stroke="none" 
	d="
M209.841507,132.067566 
	C203.310852,129.402054 196.650269,129.213699 189.435471,131.003937 
	C188.985931,130.987061 188.922501,130.917343 188.922501,130.917343 
	C191.598297,126.824974 194.018173,122.535820 196.990021,118.671097 
	C222.765991,85.150963 248.621063,51.691513 274.506378,18.255651 
	C278.859344,12.632967 283.470734,7.210375 287.981384,1.347665 
	C298.020905,1.000000 308.041779,1.000000 318.415009,1.320957 
	C318.446655,2.223834 318.190887,2.854461 317.795959,3.380638 
	C301.391113,25.237450 284.920593,47.045284 268.595184,68.961212 
	C264.478821,74.487206 260.821533,80.355202 256.578369,86.057472 
	C251.508667,84.404251 247.813248,86.090057 244.736938,89.591560 
	C237.855164,97.424561 230.853119,105.160141 224.208908,113.190926 
	C219.172424,119.278488 214.613144,125.760880 209.841507,132.067566 
z"/>
<path fill="#BBDEE3" opacity="1.000000" stroke="none" 
	d="
M1.000000,91.000000 
	C1.000000,61.083820 1.000000,31.167639 1.000000,1.000000 
	C23.020256,1.000000 45.041470,1.000000 67.401047,1.315378 
	C67.333008,2.354420 67.001205,3.133674 66.509407,3.793703 
	C49.809856,26.205574 33.117786,48.623100 16.368765,70.997986 
	C11.330438,77.728645 6.127519,84.336105 1.000000,91.000000 
z"/>
<path fill="#FEFEFF" opacity="1.000000" stroke="none" 
	d="
M256.953278,86.066040 
	C260.821533,80.355202 264.478821,74.487206 268.595184,68.961212 
	C284.920593,47.045284 301.391113,25.237450 317.795959,3.380638 
	C318.190887,2.854461 318.446655,2.223834 318.883667,1.320957 
	C328.020905,1.000000 337.041779,1.000000 346.531342,1.000000 
	C342.996613,6.821704 339.180725,12.783370 334.957764,18.441193 
	C315.322906,44.747654 295.581390,70.974533 275.850342,97.209091 
	C274.861755,98.523514 273.614868,99.643684 271.903717,100.793945 
	C266.530548,95.844391 261.741913,90.955215 256.953278,86.066040 
z"/>
<path fill="#94CAD1" opacity="1.000000" stroke="none" 
	d="
M1.000000,91.468658 
	C6.127519,84.336105 11.330438,77.728645 16.368765,70.997986 
	C33.117786,48.623100 49.809856,26.205574 66.509407,3.793703 
	C67.001205,3.133674 67.333008,2.354420 67.869705,1.315378 
	C75.354256,1.000000 82.708504,1.000000 90.531380,0.999999 
	C86.004280,8.150284 81.159256,15.411683 75.984306,22.429811 
	C61.058857,42.671337 46.045567,62.848583 30.977915,82.984573 
	C21.271118,95.956474 11.407789,108.811249 1.307309,121.859253 
	C1.000000,111.979103 1.000000,101.958214 1.000000,91.468658 
z"/>
<path fill="#FEFEFE" opacity="1.000000" stroke="none" 
	d="
M501.000000,321.531372 
	C493.973999,332.036285 486.901337,342.040253 479.931854,352.115631 
	C466.432892,371.630249 452.992096,391.185089 439.226990,410.891602 
	C435.533478,403.201721 433.190094,401.731110 424.309082,402.175842 
	C427.018829,396.949554 429.933716,391.549927 433.367432,386.503296 
	C449.816376,362.327881 466.384766,338.233521 482.956879,314.142151 
	C488.694427,305.801361 494.565277,297.552277 500.687622,289.130676 
	C501.000000,299.687561 501.000000,310.375122 501.000000,321.531372 
z"/>
<path fill="#45B554" opacity="1.000000" stroke="none" 
	d="
M184.468658,501.000000 
	C182.737152,480.493073 192.173080,463.420441 201.571671,445.072113 
	C206.794464,450.308136 211.809753,454.635620 215.981094,459.663361 
	C224.743362,470.224640 233.143967,481.091034 241.500732,491.979797 
	C243.385803,494.436005 244.484161,497.496002 245.972336,500.639038 
	C225.645767,501.000000 205.291550,501.000000 184.468658,501.000000 
z"/>
<path fill="#3DC289" opacity="1.000000" stroke="none" 
	d="
M421.468658,501.000000 
	C424.664062,493.026733 428.299133,485.039825 432.036285,477.100983 
	C432.416992,476.292297 433.301666,475.456512 434.137512,475.166443 
	C444.961365,471.410431 455.816437,467.744019 466.676910,464.094513 
	C467.090698,463.955475 467.638519,464.215302 469.563446,464.508606 
	C468.514618,471.750702 467.634613,479.009521 466.361359,486.198700 
	C465.526337,490.913635 464.122833,495.527832 462.986938,500.593567 
	C449.312439,501.000000 435.624878,501.000000 421.468658,501.000000 
z"/>
<path fill="#3CC288" opacity="1.000000" stroke="none" 
	d="
M48.468658,501.000000 
	C47.653744,494.414764 47.349728,487.826935 46.946407,481.245209 
	C46.676762,476.844818 48.512665,474.715515 53.044445,475.004395 
	C59.132008,475.392395 65.251877,475.454224 71.298935,476.160583 
	C72.680107,476.321960 74.295441,478.329865 74.989616,479.857483 
	C78.061447,486.617584 80.836647,493.512512 83.859604,500.679321 
	C72.312439,501.000000 60.624878,501.000000 48.468658,501.000000 
z"/>
<path fill="#5AB9DB" opacity="1.000000" stroke="none" 
	d="
M191.972748,191.084000 
	C218.644928,193.873291 231.933868,164.353729 222.394440,144.352112 
	C227.793091,137.949615 232.656021,131.696136 238.110199,126.009743 
	C243.333969,120.563560 249.171738,115.706284 255.064011,110.292145 
	C259.740814,116.014076 264.657898,122.034103 269.579407,128.050491 
	C288.557556,151.250717 305.736267,175.737701 319.037598,202.603424 
	C327.192749,219.074936 334.777496,236.060104 340.263123,253.553192 
	C345.175537,269.218475 347.710480,285.791046 349.718903,302.156647 
	C351.483307,316.533844 349.505035,331.071594 344.777100,344.870605 
	C337.525330,366.035889 323.968597,381.864868 302.836426,390.096283 
	C274.322723,401.203033 244.899567,400.594055 215.658463,394.176849 
	C189.906326,388.525330 171.921036,372.756470 162.420227,347.868591 
	C154.353821,326.738312 154.606232,304.923706 158.276123,283.143982 
	C163.229828,253.745117 174.303391,226.393402 187.985382,200.035706 
	C189.487640,197.141678 190.651794,194.072128 191.972748,191.084000 
M233.619522,199.678604 
	C243.184052,196.572784 246.800140,187.845795 241.382980,180.942413 
	C237.776184,176.346085 232.226639,174.892578 227.103271,177.202393 
	C221.737793,179.621353 219.594208,184.487595 219.887543,191.902618 
	C216.797211,193.813690 212.671753,195.012772 210.786926,197.753036 
	C199.722717,213.838654 193.540039,232.127396 189.169754,250.924393 
	C186.598862,261.982056 185.173904,273.374756 184.155853,284.699677 
	C183.524963,291.717987 188.862946,297.204041 195.170868,297.971619 
	C202.009628,298.803802 208.113892,295.051117 209.989929,288.217285 
	C211.117050,284.111542 211.523163,279.771790 211.914230,275.506134 
	C213.949158,253.310135 219.907318,232.273926 229.749695,212.254517 
	C231.581940,208.527771 231.925323,204.069061 233.619522,199.678604 
M210.194016,307.912628 
	C201.429779,305.306030 189.961212,307.757904 188.152328,319.883301 
	C187.154922,326.569122 190.777695,334.844391 196.459244,337.745056 
	C204.054199,341.622498 210.634064,340.458496 216.255188,334.243073 
	C223.429947,326.309784 221.007019,314.361267 210.194016,307.912628 
z"/>
<path fill="#2A9EC7" opacity="1.000000" stroke="none" 
	d="
M191.617584,190.979004 
	C190.651794,194.072128 189.487640,197.141678 187.985382,200.035706 
	C174.303391,226.393402 163.229828,253.745117 158.276123,283.143982 
	C154.606232,304.923706 154.353821,326.738312 162.420227,347.868591 
	C171.921036,372.756470 189.906326,388.525330 215.658463,394.176849 
	C244.899567,400.594055 274.322723,401.203033 302.836426,390.096283 
	C323.968597,381.864868 337.525330,366.035889 344.777100,344.870605 
	C349.505035,331.071594 351.483307,316.533844 349.718903,302.156647 
	C347.710480,285.791046 345.175537,269.218475 340.263123,253.553192 
	C334.777496,236.060104 327.192749,219.074936 319.037598,202.603424 
	C305.736267,175.737701 288.557556,151.250717 269.579407,128.050491 
	C264.657898,122.034103 259.740814,116.014076 255.064011,110.292145 
	C249.171738,115.706284 243.333969,120.563560 238.110199,126.009743 
	C232.656021,131.696136 227.793091,137.949615 222.321014,143.986755 
	C218.103836,140.178207 214.237350,136.338104 210.106171,132.282776 
	C214.613144,125.760880 219.172424,119.278488 224.208908,113.190926 
	C230.853119,105.160141 237.855164,97.424561 244.736938,89.591560 
	C247.813248,86.090057 251.508667,84.404251 256.578369,86.057472 
	C261.741913,90.955215 266.530548,95.844391 271.582794,100.935577 
	C292.007843,124.687126 310.706116,149.295517 326.226898,176.208298 
	C326.802948,177.207169 327.616669,178.068970 328.600525,179.224045 
	C331.775177,185.183884 334.668945,190.914368 337.865540,196.826508 
	C342.710876,207.500107 347.442444,217.915009 351.753723,228.501099 
	C359.097778,246.533905 364.060120,265.263184 367.605103,284.726929 
	C367.978149,298.958069 368.721100,312.932404 368.074066,326.842072 
	C367.227081,345.050964 360.431183,361.449738 350.050659,376.761047 
	C344.324249,382.819427 338.782471,388.583008 333.063019,394.627014 
	C323.395813,399.945770 314.242004,405.815918 304.333038,409.815033 
	C291.521332,414.985657 277.776886,416.763397 263.469238,417.100647 
	C256.310883,417.128540 249.605545,417.111084 241.979187,417.087738 
	C235.610001,416.553864 229.991150,416.696594 224.748138,415.362396 
	C212.735291,412.305420 200.905899,408.527435 188.809723,404.758698 
	C183.473022,401.239014 178.328598,398.002838 173.184174,394.766663 
	C156.669144,380.652283 145.155167,363.315338 140.228043,342.054291 
	C135.952606,323.605438 135.666779,304.913208 138.379684,286.176086 
	C138.592728,284.704742 138.759415,283.226685 138.856537,281.326080 
	C142.504166,267.223480 146.085602,253.500732 150.048141,239.888931 
	C152.023590,233.102951 154.696564,226.520020 157.114670,219.456680 
	C157.175323,219.068115 157.098526,219.020981 157.318634,218.976746 
	C157.785370,218.696030 158.031982,218.459534 158.278595,218.223038 
	C164.083359,206.655258 169.888123,195.087463 175.846817,183.206970 
	C181.087967,185.554169 186.175186,188.214096 191.617584,190.979004 
z"/>
<path fill="#BBDEE3" opacity="1.000000" stroke="none" 
	d="
M189.015839,131.023468 
	C188.570129,131.171555 188.094513,131.283234 187.618881,131.394913 
	C187.890305,131.244781 188.161728,131.094650 188.677826,130.930939 
	C188.922501,130.917343 188.985931,130.987061 189.015839,131.023468 
z"/>
<path fill="#B7DCE0" opacity="1.000000" stroke="none" 
	d="
M189.002014,405.042175 
	C200.905899,408.527435 212.735291,412.305420 224.748138,415.362396 
	C229.991150,416.696594 235.610001,416.553864 241.508453,417.105713 
	C237.572342,426.564240 233.185944,435.998901 229.034576,444.928040 
	C224.590897,440.714874 219.429718,435.869598 214.327652,430.962860 
	C211.930862,428.657837 209.798721,426.058838 207.283676,423.899384 
	C201.041107,418.539307 194.180969,419.831696 190.355362,427.111389 
	C186.035217,435.332153 181.921143,443.661224 177.657227,452.061798 
	C174.790543,445.874146 171.970444,439.787048 169.374512,433.150085 
	C170.180679,431.792816 170.771088,430.991302 171.343399,430.177032 
	C177.231308,421.799927 183.116241,413.420776 189.002014,405.042175 
z"/>
<path fill="#93CAD0" opacity="1.000000" stroke="none" 
	d="
M188.809723,404.758667 
	C183.116241,413.420776 177.231308,421.799927 171.343399,430.177032 
	C170.771088,430.991302 170.180679,431.792816 169.333160,432.793213 
	C165.163422,427.510162 161.259216,422.034149 157.264252,416.237122 
	C159.733643,413.040619 162.470871,410.301147 164.808990,407.255341 
	C167.715897,403.468506 170.292984,399.428467 173.098343,395.132233 
	C178.328598,398.002838 183.473022,401.239014 188.809723,404.758667 
z"/>
<path fill="#FEFEFF" opacity="1.000000" stroke="none" 
	d="
M158.099625,218.032440 
	C158.031982,218.459534 157.785370,218.696030 157.289413,219.011047 
	C157.333603,218.673660 157.627121,218.257751 158.099625,218.032440 
z"/>
<path fill="#9CD9EE" opacity="1.000000" stroke="none" 
	d="
M232.955826,199.948151 
	C231.925323,204.069061 231.581940,208.527771 229.749695,212.254517 
	C219.907318,232.273926 213.949158,253.310135 211.914230,275.506134 
	C211.523163,279.771790 211.117050,284.111542 209.989929,288.217285 
	C208.113892,295.051117 202.009628,298.803802 195.170868,297.971619 
	C188.862946,297.204041 183.524963,291.717987 184.155853,284.699677 
	C185.173904,273.374756 186.598862,261.982056 189.169754,250.924393 
	C193.540039,232.127396 199.722717,213.838654 210.786926,197.753036 
	C212.671753,195.012772 216.797211,193.813690 220.430542,192.213989 
	C223.518829,197.338394 227.368622,200.045593 232.955826,199.948151 
z"/>
<path fill="#9CD8EE" opacity="1.000000" stroke="none" 
	d="
M210.575958,308.016144 
	C221.007019,314.361267 223.429947,326.309784 216.255188,334.243073 
	C210.634064,340.458496 204.054199,341.622498 196.459244,337.745056 
	C190.777695,334.844391 187.154922,326.569122 188.152328,319.883301 
	C189.961212,307.757904 201.429779,305.306030 210.575958,308.016144 
z"/>
<path fill="#FBFDFE" opacity="1.000000" stroke="none" 
	d="
M233.287674,199.813385 
	C227.368622,200.045593 223.518829,197.338394 220.808304,192.196686 
	C219.594208,184.487595 221.737793,179.621353 227.103271,177.202393 
	C232.226639,174.892578 237.776184,176.346085 241.382980,180.942413 
	C246.800140,187.845795 243.184052,196.572784 233.287674,199.813385 
z"/>
</svg>