<svg version="1.1" id="Layer_1" xmlns="http://www.w3.org/2000/svg" xmlns:xlink="http://www.w3.org/1999/xlink" x="0px" y="0px"
	 width="100%" viewBox="0 0 500 500" enable-background="new 0 0 500 500" xml:space="preserve">
<path fill="#FD3332" opacity="1.000000" stroke="none" 
	d="
M276.000000,501.000000 
	C236.645767,501.000000 197.291550,501.000000 157.359436,500.541840 
	C156.627197,457.082764 156.472824,414.081818 156.695251,371.077637 
	C183.170471,377.204071 209.541443,381.585388 236.294495,383.598999 
	C261.911224,385.527008 287.520721,385.554901 313.025635,382.447021 
	C326.368805,380.821075 339.581116,378.121124 352.867798,376.382324 
	C352.897339,385.479767 352.911621,394.101135 352.534729,402.847412 
	C343.319275,404.315338 334.499359,405.688507 325.668579,406.987793 
	C321.614655,407.584229 318.596802,409.271088 318.790771,413.866425 
	C318.971436,418.145844 321.862671,419.886688 325.776764,420.060364 
	C328.248474,420.170044 330.758240,420.107635 333.212006,419.806061 
	C339.774567,418.999420 346.316132,418.022125 352.875671,417.545776 
	C352.903046,420.565491 352.920746,423.152130 352.557861,425.871277 
	C350.724854,426.342682 349.281494,426.727936 347.818512,427.012421 
	C340.985596,428.341248 334.142242,429.616547 327.312622,430.962036 
	C322.423248,431.925262 319.817566,434.727600 320.254944,438.424011 
	C320.718231,442.339874 324.106781,444.423340 329.312805,443.963776 
	C330.302277,443.876404 331.285736,443.706146 332.267242,443.545380 
	C339.131470,442.421021 345.994476,441.289093 352.870911,440.618713 
	C352.904663,445.240906 352.925354,449.403992 352.593323,453.691010 
	C344.136078,454.266022 336.035767,454.932465 327.925415,455.092743 
	C322.466858,455.200684 319.317871,456.846924 318.921936,460.802307 
	C318.504089,464.977051 321.332855,468.008209 326.991852,468.171326 
	C335.607361,468.419678 344.240845,468.044067 352.878235,468.401001 
	C352.908508,473.180634 352.927185,477.492706 352.587769,481.960327 
	C351.440002,482.366547 350.661163,482.660553 349.859039,482.861542 
	C328.791718,488.140991 307.273071,489.535309 285.682068,490.385620 
	C277.212891,490.719147 275.526611,492.696228 276.000000,501.000000 
z"/>
<path fill="#FF6F01" opacity="1.000000" stroke="none" 
	d="
M1.000000,203.000000 
	C1.000000,135.768723 1.000000,68.537437 1.000000,1.000000 
	C29.686834,1.000000 58.374760,1.000000 87.573029,1.467081 
	C87.867981,57.310780 87.667076,112.687454 87.425499,168.063965 
	C87.374763,179.695114 87.174530,191.325607 86.571609,202.960754 
	C57.733364,202.976746 29.366682,202.988373 1.000000,203.000000 
z"/>
<path fill="#FD3332" opacity="1.000000" stroke="none" 
	d="
M209.000000,1.000000 
	C256.687561,1.000000 304.375122,1.000000 352.526978,1.468485 
	C352.987152,8.355779 352.983032,14.774588 352.616577,21.361332 
	C345.184387,22.276299 338.120789,23.092485 331.041931,23.742199 
	C327.307678,24.084940 324.542694,25.581539 324.154938,29.523308 
	C323.735535,33.787060 326.439880,35.993443 330.267731,36.564144 
	C333.011688,36.973248 335.873901,36.813377 338.665253,36.630669 
	C343.444489,36.317848 348.209595,35.788429 352.984192,35.795731 
	C352.990204,41.513378 352.992615,46.785255 352.643005,52.238625 
	C344.477234,53.958046 336.642120,55.396717 328.859528,57.078552 
	C325.318909,57.843693 322.757446,59.926125 323.015594,63.984650 
	C323.256042,67.764297 325.739349,69.525963 329.248718,69.876717 
	C330.703156,70.022095 332.221893,69.738609 333.688873,69.507278 
	C340.078705,68.499634 346.460236,67.439430 352.881348,66.898270 
	C352.965149,70.704338 353.012360,74.010468 352.757324,77.524902 
	C345.971863,79.098450 339.498810,80.514732 333.001495,81.809128 
	C329.304749,82.545593 326.837555,84.390694 326.877197,88.395309 
	C326.917908,92.511490 329.683197,94.198799 333.318817,94.616325 
	C335.103302,94.821251 336.974030,94.667236 338.760498,94.387169 
	C343.502350,93.643799 348.219543,92.743484 352.955261,92.380112 
	C352.992065,99.775421 353.020203,106.696220 352.729767,113.757919 
	C351.128998,114.249931 349.854889,114.634598 348.563385,114.947281 
	C302.305206,126.146965 255.669113,126.143677 208.801605,119.202820 
	C208.804596,114.598228 208.829376,110.440147 208.836075,106.282043 
	C208.892593,71.188026 208.945786,36.094013 209.000000,1.000000 
z"/>
<path fill="#5FB5F1" opacity="1.000000" stroke="none" 
	d="
M446.000000,501.000000 
	C435.645782,501.000000 425.291534,501.000000 414.529846,500.534668 
	C414.063629,470.319672 414.031464,440.569977 413.934875,410.820465 
	C413.887390,396.201843 413.720459,381.583588 413.696411,366.503632 
	C413.690460,325.283020 413.621338,284.523895 413.486603,243.764969 
	C413.441559,230.135056 413.229034,216.505722 413.198669,202.425400 
	C413.315521,200.141907 413.339203,198.309113 413.336090,196.476349 
	C413.225616,131.317566 413.112640,66.158783 413.000000,1.000000 
	C423.354218,1.000000 433.708466,1.000000 444.566589,1.467516 
	C445.104553,66.916626 445.136627,131.898209 445.181671,196.879807 
	C445.183044,198.873291 445.318695,200.866699 445.302094,203.334534 
	C445.276886,252.236969 445.325806,300.665070 445.425781,349.093048 
	C445.438110,355.068207 445.722687,361.042755 445.778992,367.476990 
	C445.784546,412.290894 445.892273,456.645447 446.000000,501.000000 
z"/>
<path fill="#5FB5F0" opacity="1.000000" stroke="none" 
	d="
M87.043182,202.956406 
	C87.174530,191.325607 87.374763,179.695114 87.425499,168.063965 
	C87.667076,112.687454 87.867981,57.310780 88.041687,1.467081 
	C98.020897,1.000000 108.041786,1.000000 118.674210,1.449975 
	C119.167061,40.819691 119.006699,79.739365 118.943687,118.659195 
	C118.898193,146.761826 118.982147,174.864655 118.911423,203.430862 
	C118.646866,233.706573 118.434509,263.518677 118.325592,293.331116 
	C118.236160,317.809479 118.269646,342.288361 118.164551,367.243683 
	C117.988777,405.329987 117.885101,442.939545 117.816460,480.549225 
	C117.804016,487.365997 117.935143,494.183075 118.000000,501.000000 
	C107.645775,501.000000 97.291542,501.000000 86.560692,500.538818 
	C86.283928,472.761627 86.399536,445.445587 86.477898,418.129486 
	C86.527092,400.982025 86.520355,383.834412 86.632706,366.247345 
	C86.903412,318.011353 87.090889,270.214874 87.244156,222.418320 
	C87.264954,215.931305 87.114395,209.443726 87.043182,202.956406 
z"/>
<path fill="#FFBD00" opacity="1.000000" stroke="none" 
	d="
M86.571609,202.960754 
	C87.114395,209.443726 87.264954,215.931305 87.244156,222.418320 
	C87.090889,270.214874 86.903412,318.011353 86.194145,366.263794 
	C57.441055,366.479828 29.220528,366.239899 1.000000,366.000000 
	C1.000000,311.979095 1.000000,257.958221 1.000000,203.468658 
	C29.366682,202.988373 57.733364,202.976746 86.571609,202.960754 
z"/>
<path fill="#73D41C" opacity="1.000000" stroke="none" 
	d="
M1.000000,366.468658 
	C29.220528,366.239899 57.441055,366.479828 86.100143,366.703308 
	C86.520355,383.834412 86.527092,400.982025 86.477898,418.129486 
	C86.399536,445.445587 86.283928,472.761627 86.092033,500.538818 
	C57.723114,501.000000 29.446230,501.000000 1.000000,501.000000 
	C1.000000,456.312592 1.000000,411.624939 1.000000,366.468658 
z"/>
<path fill="#FE6F01" opacity="1.000000" stroke="none" 
	d="
M445.391754,202.860138 
	C445.318695,200.866699 445.183044,198.873291 445.181671,196.879807 
	C445.136627,131.898209 445.104553,66.916626 445.035278,1.467516 
	C463.634979,1.000000 482.269928,1.000000 501.000000,1.000000 
	C501.000000,68.020866 501.000000,135.041779 500.532257,202.498291 
	C481.840271,202.909332 463.615997,202.884735 445.391754,202.860138 
z"/>
<path fill="#FEBD02" opacity="1.000000" stroke="none" 
	d="
M445.302094,203.334534 
	C463.615997,202.884735 481.840271,202.909332 500.532257,202.966949 
	C501.000000,257.354218 501.000000,311.708466 500.531952,366.557861 
	C482.002991,367.041229 463.942047,367.029419 445.881134,367.017609 
	C445.722687,361.042755 445.438110,355.068207 445.425781,349.093048 
	C445.325806,300.665070 445.276886,252.236969 445.302094,203.334534 
z"/>
<path fill="#FFFEFE" opacity="1.000000" stroke="none" 
	d="
M208.531342,1.000000 
	C208.945786,36.094013 208.892593,71.188026 208.836075,106.282043 
	C208.829376,110.440147 208.804596,114.598228 208.411957,119.243484 
	C189.786652,116.079208 171.518372,112.520248 153.298187,108.730064 
	C146.162354,107.245659 139.134399,105.242615 132.045532,103.039993 
	C132.022507,68.736137 132.011246,34.868069 132.000000,1.000000 
	C157.354233,1.000000 182.708450,1.000000 208.531342,1.000000 
z"/>
<path fill="#73D41C" opacity="1.000000" stroke="none" 
	d="
M445.778992,367.476990 
	C463.942047,367.029419 482.002991,367.041229 500.531952,367.026520 
	C501.000000,411.563049 501.000000,456.126068 501.000000,501.000000 
	C482.980286,501.000000 464.958801,501.000000 446.468658,501.000000 
	C445.892273,456.645447 445.784546,412.290894 445.778992,367.476990 
z"/>
<path fill="#74D21C" opacity="1.000000" stroke="none" 
	d="
M118.468658,501.000000 
	C117.935143,494.183075 117.804016,487.365997 117.816460,480.549225 
	C117.885101,442.939545 117.988777,405.329987 118.617439,367.252625 
	C125.800613,366.597534 132.446793,366.410156 139.465363,366.212128 
	C145.331314,367.827942 150.824875,369.454437 156.318436,371.080902 
	C156.472824,414.081818 156.627197,457.082764 156.890778,500.541840 
	C144.312439,501.000000 131.624878,501.000000 118.468658,501.000000 
z"/>
<path fill="#FD7105" opacity="1.000000" stroke="none" 
	d="
M412.533142,1.000000 
	C413.112640,66.158783 413.225616,131.317566 413.336090,196.476349 
	C413.339203,198.309113 413.315521,200.141907 412.727173,202.444061 
	C407.239868,202.904343 402.329712,202.895248 397.330933,202.436234 
	C397.173370,173.476944 397.104431,144.967590 397.252197,116.229935 
	C404.115845,109.952217 404.006622,104.999763 397.123291,98.608231 
	C397.100555,65.756744 397.050262,33.378372 397.000000,1.000000 
	C402.022095,1.000000 407.044189,1.000000 412.533142,1.000000 
z"/>
<path fill="#FC6E01" opacity="1.000000" stroke="none" 
	d="
M353.059570,77.316589 
	C353.012360,74.010468 352.965149,70.704338 353.225708,66.768066 
	C357.269318,65.351700 361.051392,64.736206 364.730255,63.739639 
	C370.381561,62.208775 372.906403,58.851677 371.878723,54.711044 
	C370.846863,50.553600 366.989197,49.029972 361.257843,50.397549 
	C358.527069,51.049141 355.750732,51.509914 352.995056,52.057133 
	C352.992615,46.785255 352.990204,41.513378 353.412781,35.673988 
	C358.768158,34.456711 363.734131,33.999817 368.618103,33.098610 
	C372.828461,32.321705 375.586060,29.866890 375.016663,25.137798 
	C374.554504,21.299198 371.387939,19.373812 366.316467,19.797958 
	C361.862854,20.170431 357.424164,20.721313 352.978882,21.193396 
	C352.983032,14.774588 352.987152,8.355779 352.995636,1.468485 
	C363.020905,1.000000 373.041779,1.000000 383.686829,1.446691 
	C384.355011,35.115734 384.399078,68.338089 384.119934,101.780373 
	C373.547241,105.872543 363.297791,109.744789 353.048340,113.617020 
	C353.020203,106.696220 352.992065,99.775421 353.261322,92.162392 
	C358.129333,90.016380 362.806030,88.825394 367.240631,87.034721 
	C371.652435,85.253258 373.368683,81.466064 371.736847,77.891151 
	C369.878937,73.820869 366.448700,73.248924 362.525177,74.391037 
	C359.354767,75.313934 356.213684,76.337616 353.059570,77.316589 
z"/>
<path fill="#FD7206" opacity="1.000000" stroke="none" 
	d="
M131.536804,1.000000 
	C132.011246,34.868069 132.022507,68.736137 131.681915,103.161118 
	C123.965401,106.446869 121.522949,113.487320 126.351761,118.622711 
	C127.866081,120.233162 130.105164,121.162117 131.990082,122.910133 
	C131.957535,126.566048 131.945648,129.714828 131.937531,132.863617 
	C131.877258,156.225189 131.817734,179.586746 131.310043,202.949890 
	C126.910858,202.956772 122.959610,202.962082 119.008362,202.967377 
	C118.982147,174.864655 118.898193,146.761826 118.943687,118.659195 
	C119.006699,79.739365 119.167061,40.819691 119.142868,1.449975 
	C123.024544,1.000000 127.049095,1.000000 131.536804,1.000000 
z"/>
<path fill="#74D421" opacity="1.000000" stroke="none" 
	d="
M413.607605,366.965179 
	C413.720459,381.583588 413.887390,396.201843 413.934875,410.820465 
	C414.031464,440.569977 414.063629,470.319672 414.061157,500.534668 
	C408.645081,501.000000 403.290131,501.000000 397.538879,500.536041 
	C397.110046,493.402893 397.077515,486.733704 397.226837,479.780914 
	C404.719513,473.506744 404.626373,468.568848 397.123291,464.313599 
	C397.138031,453.543396 397.151398,443.224274 397.184418,432.905243 
	C397.254700,410.940247 397.335236,388.975281 397.852783,367.008209 
	C403.398529,366.992462 408.503082,366.978821 413.607605,366.965179 
z"/>
<path fill="#161514" opacity="1.000000" stroke="none" 
	d="
M397.130829,464.764771 
	C404.626373,468.568848 404.719513,473.506744 396.888367,479.860962 
	C392.357452,482.508301 388.346832,484.791962 383.951416,487.100464 
	C373.342926,490.487366 363.119141,493.849457 352.498291,497.195679 
	C346.400787,498.453217 340.700378,499.726593 335.000000,501.000000 
	C315.645782,501.000000 296.291534,501.000000 276.468658,501.000000 
	C275.526611,492.696228 277.212891,490.719147 285.682068,490.385620 
	C307.273071,489.535309 328.791718,488.140991 349.859039,482.861542 
	C350.661163,482.660553 351.440002,482.366547 352.973450,481.963562 
	C364.059113,477.959229 374.401001,474.107208 385.100464,470.126831 
	C389.348969,468.253906 393.239899,466.509338 397.130829,464.764771 
z"/>
<path fill="#D8E7F1" opacity="1.000000" stroke="none" 
	d="
M384.443146,101.560440 
	C384.399078,68.338089 384.355011,35.115734 384.155457,1.446691 
	C388.024536,1.000000 392.049103,1.000000 396.536804,1.000000 
	C397.050262,33.378372 397.100555,65.756744 396.678436,98.583160 
	C392.285065,99.874275 388.364105,100.717354 384.443146,101.560440 
z"/>
<path fill="#71D01C" opacity="1.000000" stroke="none" 
	d="
M352.895386,497.211517 
	C363.119141,493.849457 373.342926,490.487366 383.970490,487.563293 
	C384.249542,492.334198 384.124756,496.667114 384.000000,501.000000 
	C373.979095,501.000000 363.958221,501.000000 353.448456,500.621216 
	C352.938171,499.232117 352.916779,498.221832 352.895386,497.211517 
z"/>
<path fill="#D2EAF2" opacity="1.000000" stroke="none" 
	d="
M384.463196,501.000000 
	C384.124756,496.667114 384.249542,492.334198 384.355225,487.538452 
	C388.346832,484.791962 392.357452,482.508301 396.706543,480.144592 
	C397.077515,486.733704 397.110046,493.402893 397.071289,500.536041 
	C392.975464,501.000000 388.950897,501.000000 384.463196,501.000000 
z"/>
<path fill="#E5332F" opacity="1.000000" stroke="none" 
	d="
M352.498291,497.195679 
	C352.916779,498.221832 352.938171,499.232117 352.979797,500.621216 
	C347.311951,501.000000 341.623932,501.000000 335.467957,501.000000 
	C340.700378,499.726593 346.400787,498.453217 352.498291,497.195679 
z"/>
<path fill="#171413" opacity="1.000000" stroke="none" 
	d="
M156.695251,371.077637 
	C150.824875,369.454437 145.331314,367.827942 139.099762,366.068970 
	C135.434128,364.816711 131.881302,364.371063 129.749237,362.393585 
	C127.476395,360.285553 125.288483,356.679443 125.401634,353.819855 
	C125.504929,351.209167 128.240448,347.817139 130.736237,346.451508 
	C132.951065,345.239624 136.518707,345.915955 139.332504,346.506012 
	C144.975967,347.689453 150.512451,349.383026 156.406967,351.069336 
	C207.893280,364.576904 259.792816,369.400177 312.416901,363.571655 
	C326.050140,362.061646 339.449860,358.442963 353.344543,355.817200 
	C363.962830,351.867981 374.193451,347.894379 384.767212,343.872925 
	C389.114563,342.816284 393.118713,341.807526 397.409973,340.991730 
	C405.523193,346.581299 405.318054,352.402740 396.714386,359.197571 
	C392.069519,361.513031 387.774231,363.781677 383.074371,365.989746 
	C372.730682,369.254852 362.791595,372.580505 352.852509,375.906189 
	C339.581116,378.121124 326.368805,380.821075 313.025635,382.447021 
	C287.520721,385.554901 261.911224,385.527008 236.294495,383.598999 
	C209.541443,381.585388 183.170471,377.204071 156.695251,371.077637 
z"/>
<path fill="#72D11C" opacity="1.000000" stroke="none" 
	d="
M352.867798,376.382294 
	C362.791595,372.580505 372.730682,369.254852 383.243408,366.366547 
	C384.001831,368.760254 384.345398,370.716400 384.347534,372.672943 
	C384.380127,402.226044 384.357178,431.779205 384.382690,461.332336 
	C384.385284,464.306702 384.617340,467.280884 384.742920,470.255188 
	C374.401001,474.107208 364.059113,477.959229 353.331543,481.808014 
	C352.927185,477.492706 352.908508,473.180634 353.235657,468.238037 
	C358.671783,466.209686 363.875000,465.122864 368.820923,463.327423 
	C373.854736,461.500153 375.698761,457.553986 374.067017,453.703064 
	C372.499664,450.004120 368.863617,448.908691 363.883057,450.465302 
	C360.267426,451.595337 356.593781,452.539825 352.946014,453.567047 
	C352.925354,449.403992 352.904663,445.240906 353.240540,440.477203 
	C356.441101,439.074493 359.400299,438.544220 362.099548,437.400513 
	C365.365479,436.016602 367.227692,432.907715 365.689667,429.801147 
	C364.612732,427.625946 361.674713,425.929565 359.200775,425.037689 
	C357.427948,424.398590 355.047699,425.444580 352.938446,425.738770 
	C352.920746,423.152130 352.903046,420.565491 353.248474,417.404968 
	C356.500854,416.060425 359.504059,415.568909 362.250244,414.447845 
	C365.619843,413.072235 367.378601,409.859802 365.837006,406.747162 
	C364.755768,404.564026 361.768463,402.873901 359.269592,401.994995 
	C357.463745,401.359833 355.061920,402.418976 352.925903,402.722473 
	C352.911621,394.101135 352.897339,385.479767 352.867798,376.382294 
z"/>
<path fill="#191614" opacity="1.000000" stroke="none" 
	d="
M352.593323,453.691010 
	C356.593781,452.539825 360.267426,451.595337 363.883057,450.465302 
	C368.863617,448.908691 372.499664,450.004120 374.067017,453.703064 
	C375.698761,457.553986 373.854736,461.500153 368.820923,463.327423 
	C363.875000,465.122864 358.671783,466.209686 353.224091,467.770416 
	C344.240845,468.044067 335.607361,468.419678 326.991852,468.171326 
	C321.332855,468.008209 318.504089,464.977051 318.921936,460.802307 
	C319.317871,456.846924 322.466858,455.200684 327.925415,455.092743 
	C336.035767,454.932465 344.136078,454.266022 352.593323,453.691010 
z"/>
<path fill="#181514" opacity="1.000000" stroke="none" 
	d="
M352.534760,402.847412 
	C355.061920,402.418976 357.463745,401.359833 359.269592,401.994995 
	C361.768463,402.873901 364.755768,404.564026 365.837006,406.747162 
	C367.378601,409.859802 365.619843,413.072235 362.250244,414.447845 
	C359.504059,415.568909 356.500854,416.060425 353.238831,416.971863 
	C346.316132,418.022125 339.774567,418.999420 333.212006,419.806061 
	C330.758240,420.107635 328.248474,420.170044 325.776764,420.060364 
	C321.862671,419.886688 318.971436,418.145844 318.790771,413.866425 
	C318.596802,409.271088 321.614655,407.584229 325.668579,406.987793 
	C334.499359,405.688507 343.319275,404.315338 352.534760,402.847412 
z"/>
<path fill="#1A1614" opacity="1.000000" stroke="none" 
	d="
M352.557861,425.871307 
	C355.047699,425.444580 357.427948,424.398590 359.200775,425.037689 
	C361.674713,425.929565 364.612732,427.625946 365.689667,429.801147 
	C367.227692,432.907715 365.365479,436.016602 362.099548,437.400513 
	C359.400299,438.544220 356.441101,439.074493 353.227478,440.018066 
	C345.994476,441.289093 339.131470,442.421021 332.267242,443.545380 
	C331.285736,443.706146 330.302277,443.876404 329.312805,443.963776 
	C324.106781,444.423340 320.718231,442.339874 320.254944,438.424011 
	C319.817566,434.727600 322.423248,431.925262 327.312622,430.962036 
	C334.142242,429.616547 340.985596,428.341248 347.818512,427.012421 
	C349.281494,426.727936 350.724854,426.342682 352.557861,425.871307 
z"/>
<path fill="#171514" opacity="1.000000" stroke="none" 
	d="
M384.119934,101.780373 
	C388.364105,100.717354 392.285065,99.874275 396.650879,99.056274 
	C404.006622,104.999763 404.115845,109.952217 396.894958,116.355469 
	C392.340973,118.808617 388.360870,120.907959 383.987427,123.042450 
	C373.346375,126.570312 363.098694,130.063019 352.438293,133.577911 
	C317.803711,141.655884 283.124237,144.296936 248.073822,142.171768 
	C234.987595,141.378326 221.924713,140.199814 208.470428,139.059891 
	C182.730621,133.416260 157.371552,127.909637 132.012497,122.403008 
	C130.105164,121.162117 127.866081,120.233162 126.351761,118.622711 
	C121.522949,113.487320 123.965401,106.446869 131.693695,103.596901 
	C139.134399,105.242615 146.162354,107.245659 153.298187,108.730064 
	C171.518372,112.520248 189.786652,116.079208 208.425354,119.689987 
	C255.669113,126.143677 302.305206,126.146965 348.563385,114.947281 
	C349.854889,114.634598 351.128998,114.249931 352.729767,113.757927 
	C363.297791,109.744789 373.547241,105.872543 384.119934,101.780373 
z"/>
<path fill="#1A1513" opacity="1.000000" stroke="none" 
	d="
M352.616577,21.361332 
	C357.424164,20.721313 361.862854,20.170431 366.316467,19.797958 
	C371.387939,19.373812 374.554504,21.299198 375.016663,25.137798 
	C375.586060,29.866890 372.828461,32.321705 368.618103,33.098610 
	C363.734131,33.999817 358.768158,34.456711 353.409210,35.228218 
	C348.209595,35.788429 343.444489,36.317848 338.665253,36.630669 
	C335.873901,36.813377 333.011688,36.973248 330.267731,36.564144 
	C326.439880,35.993443 323.735535,33.787060 324.154938,29.523308 
	C324.542694,25.581539 327.307678,24.084940 331.041931,23.742199 
	C338.120789,23.092485 345.184387,22.276299 352.616577,21.361332 
z"/>
<path fill="#1B1513" opacity="1.000000" stroke="none" 
	d="
M352.643005,52.238625 
	C355.750732,51.509914 358.527069,51.049141 361.257843,50.397549 
	C366.989197,49.029972 370.846863,50.553600 371.878723,54.711044 
	C372.906403,58.851677 370.381561,62.208775 364.730255,63.739639 
	C361.051392,64.736206 357.269318,65.351700 353.189148,66.268120 
	C346.460236,67.439430 340.078705,68.499634 333.688873,69.507278 
	C332.221893,69.738609 330.703156,70.022095 329.248718,69.876717 
	C325.739349,69.525963 323.256042,67.764297 323.015594,63.984650 
	C322.757446,59.926125 325.318909,57.843693 328.859528,57.078552 
	C336.642120,55.396717 344.477234,53.958046 352.643005,52.238625 
z"/>
<path fill="#1A1513" opacity="1.000000" stroke="none" 
	d="
M352.757324,77.524902 
	C356.213684,76.337616 359.354767,75.313934 362.525177,74.391037 
	C366.448700,73.248924 369.878937,73.820869 371.736847,77.891151 
	C373.368683,81.466064 371.652435,85.253258 367.240631,87.034721 
	C362.806030,88.825394 358.129333,90.016380 353.252625,91.687881 
	C348.219543,92.743484 343.502350,93.643799 338.760498,94.387169 
	C336.974030,94.667236 335.103302,94.821251 333.318817,94.616325 
	C329.683197,94.198799 326.917908,92.511490 326.877197,88.395309 
	C326.837555,84.390694 329.304749,82.545593 333.001495,81.809128 
	C339.498810,80.514732 345.971863,79.098450 352.757324,77.524902 
z"/>
<path fill="#FBBD08" opacity="1.000000" stroke="none" 
	d="
M397.063965,359.150787 
	C405.318054,352.402740 405.523193,346.581299 397.413300,340.536194 
	C397.143707,298.864319 397.150116,257.840912 397.182617,216.817551 
	C397.186310,212.173676 397.337036,207.529953 397.419556,202.886154 
	C402.329712,202.895248 407.239868,202.904343 412.621521,202.894775 
	C413.229034,216.505722 413.441559,230.135056 413.486603,243.764969 
	C413.621338,284.523895 413.690460,325.283020 413.696411,366.503632 
	C408.503082,366.978821 403.398529,366.992462 397.763855,366.577454 
	C397.177155,363.816101 397.120544,361.483429 397.063965,359.150787 
z"/>
<path fill="#FDBC03" opacity="1.000000" stroke="none" 
	d="
M156.093079,350.866028 
	C150.512451,349.383026 144.975967,347.689453 139.332504,346.506012 
	C136.518707,345.915955 132.951065,345.239624 130.736237,346.451508 
	C128.240448,347.817139 125.504929,351.209167 125.401634,353.819855 
	C125.288483,356.679443 127.476395,360.285553 129.749237,362.393585 
	C131.881302,364.371063 135.434128,364.816711 138.727371,366.079590 
	C132.446793,366.410156 125.800613,366.597534 118.701538,366.775940 
	C118.269646,342.288361 118.236160,317.809479 118.325592,293.331116 
	C118.434509,263.518677 118.646866,233.706573 118.911423,203.430847 
	C122.959610,202.962082 126.910858,202.956772 131.398315,203.415909 
	C131.949020,209.184311 131.677475,214.507401 132.030548,219.788727 
	C133.182190,237.015091 138.157639,252.026932 156.011169,259.568359 
	C156.030182,290.308563 156.061630,320.587311 156.093079,350.866028 
z"/>
<path fill="#D8E9F1" opacity="1.000000" stroke="none" 
	d="
M397.330933,202.436234 
	C397.337036,207.529953 397.186310,212.173676 397.182617,216.817551 
	C397.150116,257.840912 397.143707,298.864319 397.126221,340.343231 
	C393.118713,341.807526 389.114563,342.816284 384.761444,343.409790 
	C384.392914,308.997131 384.373322,274.999786 384.581604,240.777527 
	C386.093933,239.793900 387.375732,239.030563 388.663391,238.277313 
	C392.380585,236.102890 395.147400,233.276978 393.708221,228.592926 
	C392.306976,224.032333 388.520569,223.497238 384.413147,223.436737 
	C384.295197,216.274612 384.190521,209.574249 384.200562,202.425018 
	C384.337097,175.653198 384.358948,149.330246 384.380798,123.007294 
	C388.360870,120.907959 392.340973,118.808617 396.678284,116.583755 
	C397.104431,144.967590 397.173370,173.476944 397.330933,202.436234 
z"/>
<path fill="#FFFEFD" opacity="1.000000" stroke="none" 
	d="
M156.023605,259.106903 
	C138.157639,252.026932 133.182190,237.015091 132.030548,219.788727 
	C131.677475,214.507401 131.949020,209.184311 131.846252,203.414337 
	C131.817734,179.586746 131.877258,156.225189 131.937531,132.863617 
	C131.945648,129.714828 131.957535,126.566048 131.990082,122.910133 
	C157.371552,127.909637 182.730621,133.416260 208.448792,139.515137 
	C208.816345,167.585358 209.310242,195.075302 208.635025,222.536499 
	C208.280350,236.960724 202.884308,249.059158 188.407730,256.004700 
	C177.674149,261.154449 167.206161,262.111206 156.023605,259.106903 
z"/>
<path fill="#D2EBF2" opacity="1.000000" stroke="none" 
	d="
M396.714386,359.197571 
	C397.120544,361.483429 397.177155,363.816101 397.322662,366.579529 
	C397.335236,388.975281 397.254700,410.940247 397.184418,432.905243 
	C397.151398,443.224274 397.138031,453.543396 397.123291,464.313599 
	C393.239899,466.509338 389.348969,468.253906 385.100494,470.126831 
	C384.617340,467.280884 384.385284,464.306702 384.382690,461.332336 
	C384.357178,431.779205 384.380127,402.226044 384.347534,372.672943 
	C384.345398,370.716400 384.001831,368.760254 383.648010,366.427124 
	C387.774231,363.781677 392.069519,361.513031 396.714386,359.197571 
z"/>
<path fill="#FD3332" opacity="1.000000" stroke="none" 
	d="
M156.011169,259.568359 
	C167.206161,262.111206 177.674149,261.154449 188.407730,256.004700 
	C202.884308,249.059158 208.280350,236.960724 208.635025,222.536499 
	C209.310242,195.075302 208.816345,167.585358 208.829559,139.652130 
	C221.924713,140.199814 234.987595,141.378326 248.073822,142.171768 
	C283.124237,144.296936 317.803711,141.655884 352.465454,134.077988 
	C352.928650,139.384521 352.951935,144.213135 352.664642,149.257263 
	C343.122223,151.548477 333.886047,153.605438 324.660461,155.708694 
	C320.723450,156.606262 318.388397,158.971008 319.054810,163.169876 
	C319.692108,167.185104 322.743225,168.474335 326.404358,168.373611 
	C328.718140,168.309952 331.040771,167.959030 333.325104,167.546768 
	C339.857239,166.367813 346.371826,165.091721 352.909149,164.329651 
	C352.965363,167.690140 353.005768,170.574814 352.738525,173.642761 
	C343.589417,175.375443 334.754608,176.964111 325.904083,178.459961 
	C320.293640,179.408188 317.482971,182.081436 318.016235,186.181305 
	C318.526520,190.104401 321.747314,192.155533 327.215088,191.525970 
	C335.802338,190.537201 344.358643,189.280167 352.936005,188.592514 
	C352.952423,193.070389 352.960907,197.092514 352.661499,201.336914 
	C344.169891,202.856415 336.001404,204.262512 327.796112,205.404465 
	C323.758911,205.966339 320.631531,207.296692 320.376495,211.871582 
	C320.163330,215.696472 323.195190,218.215103 328.132233,218.482101 
	C329.784363,218.571442 331.465149,218.536331 333.106842,218.340195 
	C339.694214,217.553253 346.271332,216.680862 352.872437,216.318130 
	C352.909851,223.571350 352.927063,230.346481 352.649109,237.348999 
	C328.104248,243.999939 303.595825,246.160858 278.703491,242.068085 
	C273.342560,241.186661 269.948853,242.883560 269.177948,246.774948 
	C268.411041,250.646149 270.822540,254.000885 276.076599,254.859375 
	C283.936096,256.143585 291.878845,257.159607 299.825073,257.623169 
	C317.706696,258.666382 335.345764,256.334839 352.880981,253.397324 
	C352.916595,257.557404 352.935364,261.253845 352.629913,265.147217 
	C341.211884,267.489227 330.135681,269.732300 319.016083,271.734100 
	C314.138153,272.612244 311.411835,275.006683 311.905243,278.981903 
	C312.479065,283.604980 315.805908,284.778503 319.820648,284.815735 
	C321.313782,284.829590 322.826813,284.733002 324.300354,284.496948 
	C333.820648,282.971588 343.332458,281.393707 352.867950,280.304871 
	C352.909119,284.243500 352.929413,287.710327 352.655609,291.399841 
	C348.802216,292.478607 345.274109,293.508667 341.677032,294.154633 
	C334.140747,295.507996 326.558502,296.603973 319.014313,297.915955 
	C315.109314,298.595062 312.511780,300.766357 312.885223,305.039978 
	C313.267792,309.418121 316.423035,310.725037 320.291809,310.806763 
	C321.615295,310.834747 322.954987,310.662567 324.269287,310.463165 
	C333.806793,309.016083 343.339691,307.538757 352.888794,306.529358 
	C352.927002,311.263947 352.950439,315.540131 352.655640,320.014282 
	C342.593750,322.100250 332.881165,324.174774 323.094757,325.806183 
	C317.224457,326.784729 313.974152,329.087830 314.146545,333.199219 
	C314.325989,337.479034 317.589508,339.727722 323.794006,339.008759 
	C333.507019,337.883209 343.170624,336.331116 352.873627,335.430298 
	C352.913696,342.531555 352.935272,349.162201 352.956848,355.792877 
	C339.449860,358.442963 326.050140,362.061646 312.416901,363.571655 
	C259.792816,369.400177 207.893280,364.576904 156.406967,351.069336 
	C156.061630,320.587311 156.030182,290.308563 156.011169,259.568359 
z"/>
<path fill="#FCBA01" opacity="1.000000" stroke="none" 
	d="
M353.344543,355.817200 
	C352.935272,349.162201 352.913696,342.531555 353.162354,335.205322 
	C357.225616,332.899811 361.197083,331.604340 364.756958,329.583679 
	C367.784454,327.865204 368.828491,324.728058 367.317932,321.386108 
	C365.834045,318.103210 362.967041,316.887115 359.516479,317.623962 
	C357.281464,318.101227 355.151123,319.068573 352.973877,319.816315 
	C352.950439,315.540131 352.927002,311.263947 353.230591,306.341400 
	C357.038177,304.693909 360.615448,303.939545 363.972534,302.623444 
	C367.455322,301.258087 368.999725,298.352112 368.149658,294.625702 
	C367.265015,290.747559 364.361847,289.355774 360.691895,289.697662 
	C358.087830,289.940247 355.528809,290.666718 352.949707,291.177185 
	C352.929413,287.710327 352.909119,284.243500 353.171814,280.084381 
	C356.656677,278.491333 359.969696,277.863678 363.031189,276.617950 
	C366.546143,275.187683 368.040039,272.214966 367.063049,268.471710 
	C366.118134,264.851318 363.356506,263.475037 359.815186,263.784058 
	C357.511780,263.985046 355.240051,264.548981 352.954132,264.950287 
	C352.935364,261.253845 352.916595,257.557404 353.189148,253.184097 
	C363.771545,248.672302 374.062653,244.837357 384.353729,241.002426 
	C384.373322,274.999786 384.392914,308.997131 384.418274,343.457642 
	C374.193451,347.894379 363.962830,351.867981 353.344543,355.817200 
z"/>
<path fill="#FC6E01" opacity="1.000000" stroke="none" 
	d="
M353.046143,173.459488 
	C353.005768,170.574814 352.965363,167.690140 353.211731,164.108536 
	C357.632690,162.220306 361.836853,161.225189 365.880798,159.781174 
	C369.736237,158.404480 372.030426,155.529556 370.799408,151.281876 
	C369.565125,147.022903 366.103516,145.982285 362.090302,146.766571 
	C359.020966,147.366425 356.011353,148.272095 352.975189,149.041748 
	C352.951935,144.213135 352.928650,139.384521 352.878204,134.055817 
	C363.098694,130.063019 373.346375,126.570312 383.987396,123.042450 
	C384.358948,149.330246 384.337097,175.653198 383.728943,202.439484 
	C378.488159,202.921356 373.833679,202.939911 368.926422,202.709549 
	C366.189880,199.127625 362.937103,198.535828 359.114960,199.659241 
	C357.098083,200.252060 355.019928,200.636246 352.969421,201.114624 
	C352.960907,197.092514 352.952423,193.070389 353.287903,188.431763 
	C357.207642,186.582565 360.906860,185.618195 364.326324,184.045624 
	C368.143799,182.289963 369.630829,178.957581 367.892944,175.017532 
	C366.246094,171.283844 362.951904,170.445084 359.161652,171.523331 
	C357.105927,172.108154 355.083557,172.810272 353.046143,173.459488 
z"/>
<path fill="#191514" opacity="1.000000" stroke="none" 
	d="
M384.581604,240.777527 
	C374.062653,244.837357 363.771545,248.672302 353.172272,252.720474 
	C335.345764,256.334839 317.706696,258.666382 299.825073,257.623169 
	C291.878845,257.159607 283.936096,256.143585 276.076599,254.859375 
	C270.822540,254.000885 268.411041,250.646149 269.177948,246.774948 
	C269.948853,242.883560 273.342560,241.186661 278.703491,242.068085 
	C303.595825,246.160858 328.104248,243.999939 353.043915,237.344482 
	C363.964722,232.707886 374.195557,228.303192 384.426392,223.898499 
	C388.520569,223.497238 392.306976,224.032333 393.708221,228.592926 
	C395.147400,233.276978 392.380585,236.102890 388.663391,238.277313 
	C387.375732,239.030563 386.093933,239.793900 384.581604,240.777527 
z"/>
<path fill="#FCBB00" opacity="1.000000" stroke="none" 
	d="
M384.413147,223.436737 
	C374.195557,228.303192 363.964722,232.707886 353.339081,237.117096 
	C352.927063,230.346481 352.909851,223.571350 353.179779,216.100891 
	C356.477051,214.605087 359.507843,213.874298 362.492981,212.989532 
	C368.511749,211.205688 369.681091,209.397675 369.179169,202.958466 
	C373.833679,202.939911 378.488159,202.921356 383.614258,202.888336 
	C384.190521,209.574249 384.295197,216.274612 384.413147,223.436737 
z"/>
<path fill="#1A1514" opacity="1.000000" stroke="none" 
	d="
M352.655640,291.399841 
	C355.528809,290.666718 358.087830,289.940247 360.691895,289.697662 
	C364.361847,289.355774 367.265015,290.747559 368.149658,294.625702 
	C368.999725,298.352112 367.455322,301.258087 363.972534,302.623444 
	C360.615448,303.939545 357.038177,304.693909 353.215820,305.882996 
	C343.339691,307.538757 333.806793,309.016083 324.269287,310.463165 
	C322.954987,310.662567 321.615295,310.834747 320.291809,310.806763 
	C316.423035,310.725037 313.267792,309.418121 312.885223,305.039978 
	C312.511780,300.766357 315.109314,298.595062 319.014313,297.915955 
	C326.558502,296.603973 334.140747,295.507996 341.677032,294.154633 
	C345.274109,293.508667 348.802216,292.478607 352.655640,291.399841 
z"/>
<path fill="#191513" opacity="1.000000" stroke="none" 
	d="
M352.629913,265.147217 
	C355.240051,264.548981 357.511780,263.985046 359.815186,263.784058 
	C363.356506,263.475037 366.118134,264.851318 367.063049,268.471710 
	C368.040039,272.214966 366.546143,275.187683 363.031189,276.617950 
	C359.969696,277.863678 356.656677,278.491333 353.150940,279.612610 
	C343.332458,281.393707 333.820648,282.971588 324.300354,284.496948 
	C322.826813,284.733002 321.313782,284.829590 319.820648,284.815735 
	C315.805908,284.778503 312.479065,283.604980 311.905243,278.981903 
	C311.411835,275.006683 314.138153,272.612244 319.016083,271.734100 
	C330.135681,269.732300 341.211884,267.489227 352.629913,265.147217 
z"/>
<path fill="#1A1513" opacity="1.000000" stroke="none" 
	d="
M352.655640,320.014282 
	C355.151123,319.068573 357.281464,318.101227 359.516479,317.623962 
	C362.967041,316.887115 365.834045,318.103210 367.317932,321.386108 
	C368.828491,324.728058 367.784454,327.865204 364.756958,329.583679 
	C361.197083,331.604340 357.225616,332.899811 353.143860,334.734741 
	C343.170624,336.331116 333.507019,337.883209 323.794006,339.008759 
	C317.589508,339.727722 314.325989,337.479034 314.146545,333.199219 
	C313.974152,329.087830 317.224457,326.784729 323.094757,325.806183 
	C332.881165,324.174774 342.593750,322.100250 352.655640,320.014282 
z"/>
<path fill="#1A1513" opacity="1.000000" stroke="none" 
	d="
M352.664642,149.257263 
	C356.011353,148.272095 359.020966,147.366425 362.090302,146.766571 
	C366.103516,145.982285 369.565125,147.022903 370.799408,151.281876 
	C372.030426,155.529556 369.736237,158.404480 365.880798,159.781174 
	C361.836853,161.225189 357.632690,162.220306 353.195923,163.632721 
	C346.371826,165.091721 339.857239,166.367813 333.325104,167.546768 
	C331.040771,167.959030 328.718140,168.309952 326.404358,168.373611 
	C322.743225,168.474335 319.692108,167.185104 319.054810,163.169876 
	C318.388397,158.971008 320.723450,156.606262 324.660461,155.708694 
	C333.886047,153.605438 343.122223,151.548477 352.664642,149.257263 
z"/>
<path fill="#1A1513" opacity="1.000000" stroke="none" 
	d="
M352.738525,173.642761 
	C355.083557,172.810272 357.105927,172.108154 359.161652,171.523331 
	C362.951904,170.445084 366.246094,171.283844 367.892944,175.017532 
	C369.630829,178.957581 368.143799,182.289963 364.326324,184.045624 
	C360.906860,185.618195 357.207642,186.582565 353.279968,187.976013 
	C344.358643,189.280167 335.802338,190.537201 327.215088,191.525970 
	C321.747314,192.155533 318.526520,190.104401 318.016235,186.181305 
	C317.482971,182.081436 320.293640,179.408188 325.904083,178.459961 
	C334.754608,176.964111 343.589417,175.375443 352.738525,173.642761 
z"/>
<path fill="#1A1513" opacity="1.000000" stroke="none" 
	d="
M368.926422,202.709534 
	C369.681091,209.397675 368.511749,211.205688 362.492981,212.989532 
	C359.507843,213.874298 356.477051,214.605087 353.159607,215.622803 
	C346.271332,216.680862 339.694214,217.553253 333.106842,218.340195 
	C331.465149,218.536331 329.784363,218.571442 328.132233,218.482101 
	C323.195190,218.215103 320.163330,215.696472 320.376495,211.871582 
	C320.631531,207.296692 323.758911,205.966339 327.796112,205.404465 
	C336.001404,204.262512 344.169891,202.856415 352.661499,201.336914 
	C355.019928,200.636246 357.098083,200.252060 359.114960,199.659241 
	C362.937103,198.535828 366.189880,199.127625 368.926422,202.709534 
z"/>
</svg>