<svg version="1.1" id="Layer_1" xmlns="http://www.w3.org/2000/svg" xmlns:xlink="http://www.w3.org/1999/xlink" x="0px" y="0px"
	 width="100%" viewBox="0 0 500 500" enable-background="new 0 0 500 500" xml:space="preserve">
<path fill="#F58EF1" opacity="1.000000" stroke="none" 
	d="
M1.000000,61.000000 
	C1.000000,41.042149 1.000000,21.084295 1.000000,1.000000 
	C50.020824,1.000000 99.041756,1.000000 148.542175,1.378777 
	C151.849121,7.902802 154.478104,14.149461 157.553452,20.168047 
	C161.546082,27.981785 165.893875,35.614044 169.831116,43.540031 
	C144.562775,54.179268 119.519417,64.525345 94.552826,75.053459 
	C77.564957,82.217041 60.684559,89.635475 43.387772,96.941422 
	C35.345226,99.910164 27.671015,102.877426 19.937756,105.490776 
	C15.444376,94.122398 11.090083,83.074654 6.532088,72.111610 
	C4.947346,68.299934 2.858572,64.697823 1.000000,61.000000 
z"/>
<path fill="#F69DF3" opacity="1.000000" stroke="none" 
	d="
M47.000000,501.000000 
	C31.695633,501.000000 16.391264,501.000000 1.000000,501.000000 
	C1.000000,439.312469 1.000000,377.624878 1.303795,315.350891 
	C3.062777,313.815369 4.517963,312.866272 6.027707,312.271545 
	C21.002939,333.530701 35.618557,354.662933 50.966496,375.249146 
	C59.265221,386.380249 68.575211,396.794250 77.873634,407.131805 
	C85.628860,415.753693 94.031952,423.792816 102.058182,432.420837 
	C97.076782,439.212982 92.369812,445.824554 87.257942,452.106628 
	C73.933357,468.481506 60.431278,484.711945 47.000000,501.000000 
z"/>
<path fill="#F386F0" opacity="1.000000" stroke="none" 
	d="
M501.000000,59.000000 
	C501.000000,88.020897 501.000000,117.041786 500.718933,146.760178 
	C493.601715,171.434082 486.658234,195.380539 479.958923,219.395126 
	C472.949249,244.522171 466.174225,269.714691 459.219055,295.161499 
	C459.083954,295.630829 459.026398,295.817230 458.594269,295.991943 
	C456.525757,295.342285 454.717438,294.908325 453.156067,294.033630 
	C441.877289,287.715179 430.615906,281.364075 419.414459,274.909668 
	C410.965637,270.041382 402.613831,265.004669 394.156555,259.758545 
	C394.032928,259.290131 393.971588,259.106110 394.090363,258.634979 
	C396.066040,255.362503 398.005066,252.453247 399.635803,249.380371 
	C426.082611,199.545029 452.509460,149.699051 478.894318,99.830872 
	C486.048859,86.308601 493.049896,72.705116 500.341522,59.107384 
	C500.561676,59.075863 501.000000,59.000000 501.000000,59.000000 
z"/>
<path fill="#F596F2" opacity="1.000000" stroke="none" 
	d="
M243.000000,501.000000 
	C221.645767,501.000000 200.291550,501.000000 178.418915,500.656677 
	C177.480255,499.610840 177.213013,498.721100 176.616867,498.233704 
	C167.115952,490.466187 157.353668,483.002258 148.100037,474.952881 
	C138.473434,466.579010 129.328888,457.650970 120.116142,448.660583 
	C132.173355,433.401184 144.033661,418.402771 156.019791,403.505585 
	C165.601028,391.597351 175.335373,379.812317 185.085556,368.367676 
	C186.787811,377.404968 187.864838,386.195312 190.177338,394.647675 
	C192.480057,403.064178 194.860077,411.840912 199.290497,419.205841 
	C206.185547,430.667847 218.643906,432.889893 230.840057,432.715149 
	C246.913849,432.484863 262.969086,430.958801 278.903992,430.316772 
	C270.640747,446.227753 262.426361,461.771057 254.404602,477.413116 
	C250.420563,485.181824 246.790298,493.131958 243.000000,501.000000 
z"/>
<path fill="#F48EF1" opacity="1.000000" stroke="none" 
	d="
M501.000000,317.000000 
	C501.000000,378.333344 501.000000,439.666687 501.000000,501.000000 
	C497.274506,501.000000 493.616455,501.000000 489.390106,500.646851 
	C487.566467,499.596283 486.387817,498.628448 485.042816,498.246948 
	C478.214996,496.310242 471.318634,494.614716 464.494293,492.666443 
	C454.651184,489.856384 444.849396,486.901550 435.031799,483.609314 
	C437.598816,472.432404 440.164001,461.654663 442.834534,450.499084 
	C450.403839,421.186554 457.803436,392.235138 465.355164,363.323456 
	C470.093628,345.182373 475.060547,327.100983 480.322021,308.995880 
	C482.604462,309.563354 484.551910,309.976807 486.363281,310.721283 
	C491.273041,312.739105 496.125092,314.897400 501.000000,317.000000 
z"/>
<path fill="#F286F0" opacity="1.000000" stroke="none" 
	d="
M482.000000,0.999992 
	C488.228180,1.000000 494.456390,1.000000 501.000000,1.000000 
	C501.000000,4.001611 501.000000,7.014241 500.711365,10.495506 
	C500.020660,11.325761 499.618591,11.687379 499.032593,12.353205 
	C469.352966,68.142235 439.874084,123.636009 410.350555,179.106018 
	C402.313080,194.207184 394.141174,209.236832 385.998535,223.835876 
	C386.105988,221.716339 386.362335,220.060547 386.367188,218.404022 
	C386.402008,206.488022 387.087952,194.520096 386.213959,182.668427 
	C385.033295,166.658020 378.716553,152.099289 371.188049,137.940277 
	C389.583344,115.329880 407.771576,92.990822 425.887939,70.593666 
	C444.628265,47.425129 463.298889,24.200230 482.000000,0.999992 
z"/>
<path fill="#F596F2" opacity="1.000000" stroke="none" 
	d="
M1.000003,286.000000 
	C1.000000,237.312439 1.000000,188.624878 1.309948,139.354401 
	C11.413914,134.892654 21.207930,131.013809 31.057779,127.479355 
	C35.943890,137.283997 40.270176,147.045471 45.707249,156.143082 
	C57.779766,176.343445 70.362801,196.240143 82.884155,216.168625 
	C84.111992,218.122787 86.355797,219.438614 87.937637,221.330582 
	C58.831497,243.073608 29.915752,264.536804 1.000003,286.000000 
z"/>
<path fill="#F386F0" opacity="1.000000" stroke="none" 
	d="
M339.000000,1.000001 
	C354.687561,1.000000 370.375122,1.000000 386.395996,1.307619 
	C369.670197,14.284672 352.601044,26.940556 335.554688,39.627171 
	C316.650665,53.696350 297.767487,67.793579 278.460083,81.921844 
	C262.776428,81.302490 247.509033,80.221733 232.238892,80.181786 
	C226.077118,80.165649 219.859787,82.224365 213.761124,83.719650 
	C209.427017,84.782295 205.249207,86.482407 200.950104,87.556656 
	C197.665298,82.699593 194.302536,78.269531 191.241104,73.640182 
	C188.930878,70.146751 187.006226,66.398346 185.111328,62.565132 
	C185.954285,61.984585 186.595886,61.602333 187.613373,61.181160 
	C189.414581,60.698421 190.876755,60.347301 192.259827,59.797241 
	C227.805481,45.660458 263.354309,31.531498 298.875854,17.334301 
	C312.284760,11.975049 325.627228,6.449661 339.000000,1.000001 
z"/>
<path fill="#F596F2" opacity="1.000000" stroke="none" 
	d="
M407.000000,501.000000 
	C361.312439,501.000000 315.624878,501.000000 269.523560,500.648193 
	C282.337280,475.180603 295.564758,450.064789 309.082642,424.889282 
	C309.567169,424.798065 309.761322,424.766541 310.100525,425.059875 
	C311.501862,426.424896 312.621124,427.727356 314.035065,428.465485 
	C332.543182,438.127380 350.886292,448.140228 369.700806,457.168854 
	C383.561920,463.820435 398.052643,469.160004 412.225586,475.497711 
	C411.775787,478.009888 411.383362,480.112762 410.946930,482.206390 
	C409.640533,488.472870 408.316895,494.735718 407.000000,501.000000 
z"/>
<path fill="#F286F0" opacity="1.000000" stroke="none" 
	d="
M427.000000,1.000000 
	C435.020905,1.000000 443.041809,1.000000 451.378540,1.296414 
	C434.736664,22.496632 417.794495,43.413025 400.816650,64.300461 
	C385.938110,82.605209 371.019562,100.877464 355.853790,119.041580 
	C341.853027,105.568993 325.574097,96.299858 308.193176,88.992584 
	C310.449524,87.270500 312.435455,85.765480 314.438385,84.283409 
	C351.957703,56.520657 389.479065,28.760609 427.000000,1.000000 
z"/>
<path fill="#9CC7FF" opacity="1.000000" stroke="none" 
	d="
M185.001770,367.972595 
	C175.335373,379.812317 165.601028,391.597351 156.019791,403.505585 
	C144.033661,418.402771 132.173355,433.401184 119.833130,448.839355 
	C117.601936,451.697815 115.826797,454.096710 113.985817,456.443939 
	C102.331978,471.302307 90.663597,486.149292 79.000000,501.000000 
	C68.645775,501.000000 58.291546,501.000000 47.468658,501.000000 
	C60.431278,484.711945 73.933357,468.481506 87.257942,452.106628 
	C92.369812,445.824554 97.076782,439.212982 102.332840,432.238403 
	C110.042603,422.721405 117.361107,413.695648 124.739014,404.718781 
	C136.737366,390.120209 148.774582,375.553619 161.045715,360.864807 
	C161.526199,360.481232 161.756378,360.206329 161.989777,359.963989 
	C161.992996,359.996552 161.928787,359.984192 162.151215,359.860748 
	C162.575653,359.469055 162.777664,359.200836 162.986526,358.963898 
	C162.993362,358.995209 162.931213,358.979523 163.151642,358.856720 
	C163.572678,358.468079 163.773285,358.202240 163.980453,357.967987 
	C163.987030,357.999573 163.925064,357.981659 164.168854,357.801697 
	C164.598618,357.060486 164.784607,356.499207 164.976929,355.969788 
	C164.983246,356.001648 164.926926,355.969299 165.275009,355.939453 
	C166.729660,354.583862 167.836227,353.258148 168.972702,351.953735 
	C169.002625,351.975037 168.929962,351.964874 169.238373,351.830200 
	C173.282013,348.107056 177.017227,344.518524 180.895020,341.318909 
	C182.358994,350.462769 183.680374,359.217682 185.001770,367.972595 
z"/>
<path fill="#4189E6" opacity="1.000000" stroke="none" 
	d="
M356.118652,119.164078 
	C371.019562,100.877464 385.938110,82.605209 400.816650,64.300461 
	C417.794495,43.413025 434.736664,22.496632 451.847168,1.296414 
	C461.687561,1.000000 471.375122,1.000000 481.531311,0.999992 
	C463.298889,24.200230 444.628265,47.425129 425.887939,70.593666 
	C407.771576,92.990822 389.583344,115.329880 370.908020,137.742386 
	C365.632477,131.581558 360.875549,125.372818 356.118652,119.164078 
z"/>
<path fill="#4189E6" opacity="1.000000" stroke="none" 
	d="
M426.531342,1.000000 
	C389.479065,28.760609 351.957703,56.520657 314.438385,84.283409 
	C312.435455,85.765480 310.449524,87.270500 307.802856,88.948090 
	C297.725098,86.713753 288.300171,84.296165 278.875214,81.878586 
	C297.767487,67.793579 316.650665,53.696350 335.554688,39.627171 
	C352.601044,26.940556 369.670197,14.284672 386.864655,1.307619 
	C400.020905,1.000000 413.041779,1.000000 426.531342,1.000000 
z"/>
<path fill="#4188E6" opacity="1.000000" stroke="none" 
	d="
M338.531342,1.000001 
	C325.627228,6.449661 312.284760,11.975049 298.875854,17.334301 
	C263.354309,31.531498 227.805481,45.660458 192.259827,59.797241 
	C190.876755,60.347301 189.414581,60.698421 187.192093,61.115150 
	C179.127731,60.490646 174.867493,57.604034 174.574554,51.382347 
	C174.411819,47.925446 176.763702,44.350147 178.242218,40.607140 
	C204.450775,29.943604 230.411499,19.531187 256.339111,9.036974 
	C262.615540,6.496597 268.782623,3.686217 275.000000,0.999998 
	C296.020905,1.000000 317.041779,1.000000 338.531342,1.000001 
z"/>
<path fill="#9CC7FF" opacity="1.000000" stroke="none" 
	d="
M1.000003,286.468658 
	C29.915752,264.536804 58.831497,243.073608 88.240005,221.193207 
	C91.480942,219.169907 94.229103,217.563828 97.416290,215.955688 
	C106.375870,215.963745 110.402298,218.360306 111.345108,224.990952 
	C111.758286,227.896805 110.516678,231.037933 110.013412,234.041595 
	C110.000336,234.010971 110.065353,233.996475 109.843124,234.121216 
	C109.408676,234.507874 109.196442,234.769806 108.986633,235.007370 
	C108.989052,234.982986 109.036598,234.994766 108.832375,235.013702 
	C108.375053,235.331863 108.121956,235.631073 107.691711,236.202057 
	C105.298866,238.291763 103.083160,240.109695 100.558487,242.063995 
	C68.824066,265.439270 37.398605,288.678192 5.973147,311.917145 
	C4.517963,312.866272 3.062777,313.815369 1.303795,314.882263 
	C1.000000,305.645782 1.000000,296.291534 1.000003,286.468658 
z"/>
<path fill="#4189E6" opacity="1.000000" stroke="none" 
	d="
M459.296631,294.878601 
	C466.174225,269.714691 472.949249,244.522171 479.958923,219.395126 
	C486.658234,195.380539 493.601715,171.434082 500.718933,147.228836 
	C501.000000,175.687561 501.000000,204.375122 500.699890,233.736008 
	C499.883331,235.979233 499.308136,237.532547 498.859406,239.121567 
	C493.223328,259.079803 487.605530,279.043182 481.766418,299.197693 
	C481.444855,299.758209 481.339935,300.126282 481.281311,300.607178 
	C481.327606,300.720001 481.208130,300.932617 480.867126,301.082825 
	C471.508606,307.370575 465.936798,305.901581 460.766357,296.075958 
	C460.495636,295.561493 459.796387,295.272552 459.296631,294.878601 
z"/>
<path fill="#F386F0" opacity="1.000000" stroke="none" 
	d="
M274.531342,0.999998 
	C268.782623,3.686217 262.615540,6.496597 256.339111,9.036974 
	C230.411499,19.531187 204.450775,29.943604 177.863800,40.643497 
	C174.846527,41.708752 172.467651,42.516582 170.088791,43.324417 
	C165.893875,35.614044 161.546082,27.981785 157.553452,20.168047 
	C154.478104,14.149461 151.849121,7.902802 149.010834,1.378777 
	C190.687561,1.000000 232.375122,1.000000 274.531342,0.999998 
z"/>
<path fill="#F69DF3" opacity="1.000000" stroke="none" 
	d="
M79.468658,501.000000 
	C90.663597,486.149292 102.331978,471.302307 113.985817,456.443939 
	C115.826797,454.096710 117.601936,451.697815 119.690536,449.144043 
	C129.328888,457.650970 138.473434,466.579010 148.100037,474.952881 
	C157.353668,483.002258 167.115952,490.466187 176.616867,498.233704 
	C177.213013,498.721100 177.480255,499.610840 177.950256,500.656677 
	C145.312439,501.000000 112.624878,501.000000 79.468658,501.000000 
z"/>
<path fill="#9DC7FF" opacity="1.000000" stroke="none" 
	d="
M308.792236,424.948975 
	C295.564758,450.064789 282.337280,475.180603 269.054932,500.648193 
	C260.645752,501.000000 252.291534,501.000000 243.468658,501.000000 
	C246.790298,493.131958 250.420563,485.181824 254.404602,477.413116 
	C262.426361,461.771057 270.640747,446.227753 279.298889,430.228027 
	C289.478821,428.191254 299.135498,426.570099 308.792236,424.948975 
z"/>
<path fill="#9CC7FF" opacity="1.000000" stroke="none" 
	d="
M407.468628,501.000000 
	C408.316895,494.735718 409.640533,488.472870 410.946930,482.206390 
	C411.383362,480.112762 411.775787,478.009888 412.433899,475.204102 
	C415.476379,464.320953 418.273315,454.144958 421.265076,443.838776 
	C421.697083,443.494812 421.873322,443.239014 421.986572,442.973694 
	C421.984558,443.006165 421.922424,442.986969 422.254639,442.834351 
	C430.799072,437.175262 437.690094,439.269318 441.293060,448.333313 
	C441.649414,449.229828 442.244781,450.031342 442.729187,450.876953 
	C440.164001,461.654663 437.598816,472.432404 434.856171,483.946198 
	C433.452484,490.121490 432.226227,495.560760 431.000000,501.000000 
	C423.312408,501.000000 415.624847,501.000000 407.468628,501.000000 
z"/>
<path fill="#9CC7FF" opacity="1.000000" stroke="none" 
	d="
M31.001945,127.134956 
	C21.207930,131.013809 11.413914,134.892654 1.309948,138.885742 
	C1.000000,130.645767 1.000000,122.291534 1.381882,113.481827 
	C7.841444,110.632469 13.919125,108.238579 19.996805,105.844688 
	C27.671015,102.877426 35.345226,99.910164 43.829418,96.950264 
	C52.460098,97.183411 56.669811,100.007263 57.502617,106.536858 
	C57.855392,109.302773 56.585251,112.275673 56.025780,115.121101 
	C55.998821,115.087700 56.048615,115.017143 55.809685,115.151634 
	C55.377846,115.593597 55.184933,115.901077 54.760632,116.451477 
	C46.686813,120.174583 38.844379,123.654770 31.001945,127.134956 
z"/>
<path fill="#F186F0" opacity="1.000000" stroke="none" 
	d="
M481.208130,300.932617 
	C481.208130,300.932617 481.327606,300.720001 481.499878,300.411743 
	C481.775787,299.737427 481.879425,299.371338 481.983063,299.005249 
	C487.605530,279.043182 493.223328,259.079803 498.859406,239.121567 
	C499.308136,237.532547 499.883331,235.979233 500.699890,234.204666 
	C501.000000,261.354218 501.000000,288.708466 501.000000,316.531342 
	C496.125092,314.897400 491.273041,312.739105 486.363281,310.721283 
	C484.551910,309.976807 482.604462,309.563354 480.332550,308.589539 
	C480.366730,305.764313 480.787445,303.348450 481.208130,300.932617 
z"/>
<path fill="#F496F2" opacity="1.000000" stroke="none" 
	d="
M431.468658,501.000000 
	C432.226227,495.560760 433.452484,490.121490 434.854340,484.345398 
	C444.849396,486.901550 454.651184,489.856384 464.494293,492.666443 
	C471.318634,494.614716 478.214996,496.310242 485.042816,498.246948 
	C486.387817,498.628448 487.566467,499.596283 488.910919,500.646851 
	C469.979095,501.000000 450.958221,501.000000 431.468658,501.000000 
z"/>
<path fill="#F496F2" opacity="1.000000" stroke="none" 
	d="
M19.937756,105.490776 
	C13.919125,108.238579 7.841444,110.632469 1.381882,113.013184 
	C1.000000,95.979103 1.000000,78.958214 1.000000,61.468658 
	C2.858572,64.697823 4.947346,68.299934 6.532088,72.111610 
	C11.090083,83.074654 15.444376,94.122398 19.937756,105.490776 
z"/>
<path fill="#6DABFF" opacity="1.000000" stroke="none" 
	d="
M499.216522,12.049004 
	C499.618591,11.687379 500.020660,11.325761 500.711365,10.982071 
	C501.000000,26.687561 501.000000,42.375122 501.000000,58.531342 
	C501.000000,59.000000 500.561676,59.075863 500.300171,58.629948 
	C500.027069,44.572388 500.043823,30.960590 499.969269,17.349291 
	C499.959595,15.581210 499.478973,13.815707 499.216522,12.049004 
z"/>
<path fill="#6DACFF" opacity="1.000000" stroke="none" 
	d="
M56.052734,115.154503 
	C56.585251,112.275673 57.855392,109.302773 57.502617,106.536858 
	C56.669811,100.007263 52.460098,97.183411 44.197754,96.948792 
	C60.684559,89.635475 77.564957,82.217041 94.552826,75.053459 
	C119.519417,64.525345 144.562775,54.179268 169.831116,43.540031 
	C172.467651,42.516582 174.846527,41.708752 177.603806,40.864563 
	C176.763702,44.350147 174.411819,47.925446 174.574554,51.382347 
	C174.867493,57.604034 179.127731,60.490646 186.816208,61.154068 
	C186.595886,61.602333 185.954285,61.984585 184.740601,62.621742 
	C183.686462,63.002808 183.181305,63.073448 182.725632,63.263069 
	C148.069641,77.684891 113.434723,92.157600 78.751480,106.513550 
	C71.274101,109.608566 63.623528,112.285172 56.052734,115.154503 
z"/>
<path fill="#F596F2" opacity="1.000000" stroke="none" 
	d="
M6.027704,312.271545 
	C37.398605,288.678192 68.824066,265.439270 100.868652,242.229324 
	C109.295677,251.657990 116.804344,261.327148 124.975418,270.399689 
	C140.700333,287.859467 156.763031,305.016327 172.812988,322.179718 
	C174.136414,323.594940 176.428787,324.104065 178.449127,325.361725 
	C179.121552,329.365265 179.615768,333.041321 179.905273,337.008392 
	C176.110367,342.187927 172.520172,347.076416 168.929962,351.964874 
	C168.929962,351.964874 169.002625,351.975037 168.632965,351.956970 
	C167.151199,353.282379 166.039062,354.625854 164.926941,355.969299 
	C164.926926,355.969299 164.983246,356.001648 164.719482,356.139374 
	C164.278824,356.845276 164.101944,357.413483 163.925064,357.981659 
	C163.925064,357.981659 163.987030,357.999573 163.715240,358.029022 
	C163.272705,358.365479 163.101959,358.672516 162.931213,358.979523 
	C162.931213,358.979523 162.993362,358.995209 162.728851,359.040070 
	C162.285828,359.384674 162.107300,359.684448 161.928787,359.984192 
	C161.928787,359.984192 161.992996,359.996552 161.731628,360.057007 
	C161.245316,360.402832 161.020355,360.688202 160.795395,360.973541 
	C148.774582,375.553619 136.737366,390.120209 124.739014,404.718781 
	C117.361107,413.695648 110.042603,422.721405 102.422745,431.907623 
	C94.031952,423.792816 85.628860,415.753693 77.873634,407.131805 
	C68.575211,396.794250 59.265221,386.380249 50.966496,375.249146 
	C35.618557,354.662933 21.002939,333.530701 6.027704,312.271545 
z"/>
<path fill="#F58EF1" opacity="1.000000" stroke="none" 
	d="
M421.070251,443.968964 
	C418.273315,454.144958 415.476379,464.320953 412.471130,474.790558 
	C398.052643,469.160004 383.561920,463.820435 369.700806,457.168854 
	C350.886292,448.140228 332.543182,438.127380 314.035065,428.465485 
	C312.621124,427.727356 311.501862,426.424896 310.396423,424.896240 
	C321.163513,421.369141 325.926392,413.781769 326.883698,403.290466 
	C327.422394,397.387177 327.859558,391.474579 328.520569,385.337830 
	C349.181335,345.901703 369.673859,306.699158 390.121918,267.473419 
	C391.336700,265.143066 392.194550,262.626678 393.180389,260.135864 
	C393.142273,260.074860 393.161499,260.217438 393.431702,260.209229 
	C393.874207,260.148315 394.046509,260.095581 394.218842,260.042877 
	C402.613831,265.004669 410.965637,270.041382 419.414459,274.909668 
	C430.615906,281.364075 441.877289,287.715179 453.156067,294.033630 
	C454.717438,294.908325 456.525757,295.342285 458.614746,296.388367 
	C448.152710,338.578369 437.257629,380.350494 426.476410,422.151947 
	C424.702209,429.030884 423.427795,436.038696 421.922424,442.986969 
	C421.922424,442.986969 421.984558,443.006165 421.740631,443.037537 
	C421.354553,443.368927 421.212402,443.668945 421.070251,443.968964 
z"/>
<path fill="#4189E6" opacity="1.000000" stroke="none" 
	d="
M499.032593,12.353210 
	C499.478973,13.815707 499.959595,15.581210 499.969269,17.349291 
	C500.043823,30.960590 500.027069,44.572388 500.080017,58.661469 
	C493.049896,72.705116 486.048859,86.308601 478.894318,99.830872 
	C452.509460,149.699051 426.082611,199.545029 399.635803,249.380371 
	C398.005066,252.453247 396.066040,255.362503 393.889160,258.801819 
	C393.392426,259.576324 393.276947,259.896881 393.161499,260.217438 
	C393.161499,260.217438 393.142273,260.074860 392.781219,260.111633 
	C391.199921,260.610168 389.999603,261.135956 388.756042,261.522705 
	C383.233948,263.240021 377.213806,260.062500 375.791504,254.317963 
	C379.265381,244.078964 382.648163,234.189133 386.030945,224.299301 
	C394.141174,209.236832 402.313080,194.207184 410.350555,179.106018 
	C439.874084,123.636009 469.352966,68.142235 499.032593,12.353210 
z"/>
<path fill="#6DACFF" opacity="1.000000" stroke="none" 
	d="
M422.254639,442.834351 
	C423.427795,436.038696 424.702209,429.030884 426.476410,422.151947 
	C437.257629,380.350494 448.152710,338.578369 458.989319,296.400085 
	C459.026398,295.817230 459.083954,295.630829 459.219055,295.161530 
	C459.796387,295.272552 460.495636,295.561493 460.766357,296.075958 
	C465.936798,305.901581 471.508606,307.370575 480.867126,301.082825 
	C480.787445,303.348450 480.366730,305.764313 479.935486,308.586487 
	C475.060547,327.100983 470.093628,345.182373 465.355164,363.323456 
	C457.803436,392.235138 450.403839,421.186554 442.834534,450.499084 
	C442.244781,450.031342 441.649414,449.229828 441.293060,448.333313 
	C437.690094,439.269318 430.799072,437.175262 422.254639,442.834351 
z"/>
<path fill="#6DACFF" opacity="1.000000" stroke="none" 
	d="
M393.431702,260.209229 
	C393.276947,259.896881 393.392426,259.576324 393.709106,259.088928 
	C393.971588,259.106110 394.032928,259.290131 394.156555,259.758545 
	C394.046509,260.095581 393.874207,260.148315 393.431702,260.209229 
z"/>
<path fill="#FFFEFF" opacity="1.000000" stroke="none" 
	d="
M385.998505,223.835876 
	C382.648163,234.189133 379.265381,244.078964 375.541077,254.552765 
	C368.529388,264.770996 361.859161,274.405243 354.916443,284.194153 
	C354.417816,284.904907 354.191650,285.461029 353.974823,286.003296 
	C353.984192,285.989410 354.000641,285.960236 353.657532,285.993622 
	C347.756958,290.995300 342.167694,295.928986 336.677765,300.970764 
	C335.892639,301.691772 335.223328,302.899536 335.119293,303.943665 
	C334.381134,311.352448 333.804169,318.777313 333.129547,326.613861 
	C331.502991,346.542511 329.922699,366.054352 328.342407,385.566193 
	C327.859558,391.474579 327.422394,397.387177 326.883698,403.290466 
	C325.926392,413.781769 321.163513,421.369141 310.251343,424.571411 
	C309.761322,424.766541 309.567169,424.798065 309.082611,424.889282 
	C299.135498,426.570099 289.478821,428.191254 279.427216,429.901123 
	C262.969086,430.958801 246.913849,432.484863 230.840057,432.715149 
	C218.643906,432.889893 206.185547,430.667847 199.290497,419.205841 
	C194.860077,411.840912 192.480057,403.064178 190.177338,394.647675 
	C187.864838,386.195312 186.787811,377.404968 185.085556,368.367676 
	C183.680374,359.217682 182.358994,350.462769 180.955322,340.954895 
	C180.618683,339.040436 180.364349,337.878876 180.110016,336.717346 
	C179.615768,333.041321 179.121552,329.365265 178.473099,324.929993 
	C177.946335,321.238037 176.851822,318.164734 177.388321,315.408966 
	C178.025101,312.138214 176.667953,310.983978 174.329117,309.626099 
	C154.376007,298.041504 140.193497,280.965424 129.758118,260.848877 
	C124.609779,250.924301 121.264587,240.064346 117.125809,229.230194 
	C116.071213,220.441330 114.994308,212.049866 113.944839,203.213989 
	C114.290474,197.466064 114.270271,192.116638 114.982880,186.866669 
	C119.002983,157.249527 133.693695,133.486893 155.906952,114.157166 
	C169.216248,102.575577 184.741745,94.544090 201.001648,87.898010 
	C205.249207,86.482407 209.427017,84.782295 213.761124,83.719650 
	C219.859787,82.224365 226.077118,80.165649 232.238892,80.181786 
	C247.509033,80.221733 262.776428,81.302490 278.460083,81.921844 
	C288.300171,84.296165 297.725098,86.713753 307.540344,89.175842 
	C325.574097,96.299858 341.853027,105.568993 355.853760,119.041580 
	C360.875549,125.372818 365.632477,131.581558 370.669403,137.988220 
	C378.716553,152.099289 385.033295,166.658020 386.213959,182.668427 
	C387.087952,194.520096 386.402008,206.488022 386.367188,218.404022 
	C386.362335,220.060547 386.105988,221.716339 385.998505,223.835876 
M218.411789,324.521637 
	C212.174286,323.178375 205.936783,321.835114 199.699280,320.491852 
	C199.402924,320.920990 199.106552,321.350128 198.810196,321.779297 
	C200.034088,322.801727 201.165222,324.548920 202.498154,324.719543 
	C207.914261,325.412811 213.392273,325.622345 219.548019,326.489136 
	C224.084061,326.558655 228.620117,326.628174 234.006683,326.765900 
	C245.930984,326.171967 257.859863,325.648010 269.771942,324.867706 
	C270.871674,324.795685 272.723602,323.127625 272.765076,322.139343 
	C273.002747,316.476440 275.925201,312.979858 280.712860,310.440826 
	C285.306458,308.004700 289.729736,305.247467 292.990417,303.351044 
	C291.495514,297.821686 289.468994,293.503052 289.366699,289.139313 
	C289.240356,283.749390 290.737488,278.325317 291.489685,272.909973 
	C292.688202,264.281769 293.850800,255.648575 294.904602,247.926025 
	C288.899200,249.682816 283.009064,251.405884 276.373230,252.943344 
	C272.074310,250.317261 267.662903,247.853867 263.525452,244.994141 
	C261.553925,243.631470 260.103485,241.514908 258.233307,239.054611 
	C257.104462,235.813797 255.426407,237.251389 253.741486,238.512466 
	C248.053131,242.769943 241.784271,245.797134 234.597900,245.865875 
	C229.892166,245.910904 225.177963,245.073898 219.030838,244.497131 
	C222.727783,255.406189 226.193558,265.633118 229.847626,276.623108 
	C232.289581,285.130310 234.731522,293.637482 237.058899,302.874359 
	C237.449982,303.917603 237.662918,305.078003 238.260025,305.985718 
	C243.588104,314.085449 241.833389,320.450165 232.039551,324.942596 
	C227.722717,324.925629 223.405884,324.908661 218.411789,324.521637 
M295.361115,396.891907 
	C270.751129,403.499908 245.626648,406.443512 220.228638,407.869019 
	C244.689453,411.338959 268.861450,408.303680 293.846954,404.237518 
	C304.035339,403.019989 304.035339,403.019989 304.076843,393.996063 
	C301.340668,394.976501 298.766357,395.898956 295.361115,396.891907 
M251.055161,101.162140 
	C239.524292,100.896294 227.892227,99.760193 216.272385,105.135773 
	C193.747986,113.155174 174.012070,125.407928 158.655426,143.963837 
	C148.897568,155.754547 141.380295,168.790604 138.744278,184.966324 
	C138.527115,194.421265 138.309952,203.876205 138.075043,214.115021 
	C141.205872,234.549728 150.089920,252.345718 162.749741,268.482117 
	C174.228622,283.113312 188.891296,292.973785 206.638199,298.265167 
	C208.337524,298.771851 210.364609,298.179321 212.239548,298.097076 
	C212.025391,296.529205 212.077637,294.866333 211.557449,293.407593 
	C202.599716,268.288513 195.508728,242.691620 191.564102,216.275360 
	C190.639893,210.086075 193.813965,204.278290 198.766922,203.130417 
	C204.627914,201.772110 209.255569,204.755249 211.584473,211.393082 
	C215.721802,223.185287 232.891434,227.633011 242.117920,219.302658 
	C252.034866,210.348907 261.289459,210.194183 271.445343,218.784225 
	C272.197937,219.420792 273.084595,219.898895 274.100006,221.037384 
	C275.828186,223.400986 277.556366,225.764587 279.789062,228.818192 
	C287.097748,219.104523 298.465729,213.980347 302.864838,201.820450 
	C308.797150,198.372726 311.575745,198.721924 318.064240,204.320343 
	C318.365387,204.881180 318.666534,205.442032 318.976105,206.940109 
	C318.069641,222.319702 317.368011,237.714981 316.191528,253.073883 
	C315.261505,265.215027 313.748138,277.311462 312.335999,290.952209 
	C317.963409,286.369385 322.663788,282.792816 327.082397,278.896667 
	C341.211578,266.437988 353.104584,252.350006 359.161713,233.239868 
	C360.444977,228.497406 362.472443,223.814453 362.857513,219.000153 
	C363.675385,208.775528 364.413055,198.431061 363.735657,188.231903 
	C363.047729,177.873749 360.879242,167.552505 354.943542,157.875565 
	C350.322083,151.212112 345.700623,144.548645 340.787201,137.287750 
	C337.112946,133.927490 333.697083,130.218460 329.717529,127.270287 
	C316.064636,117.155807 301.025604,109.963539 283.664001,106.306747 
	C273.093445,104.665184 262.522919,103.023621 251.055161,101.162140 
M228.249542,385.862213 
	C249.802414,383.819794 271.132721,380.661591 291.668915,373.424835 
	C264.309906,374.534332 237.053604,378.326843 209.646957,373.847595 
	C209.950943,385.325317 210.525574,385.911011 220.801697,385.925018 
	C222.967560,385.927979 225.133438,385.898254 228.249542,385.862213 
M248.306107,353.940674 
	C260.552277,352.893799 272.815186,352.007690 285.038025,350.736511 
	C291.797791,350.033569 298.514679,348.811981 305.194397,347.529663 
	C306.656433,347.248962 307.877960,345.715302 309.210236,344.758667 
	C308.906616,344.277191 308.603027,343.795715 308.299408,343.314270 
	C273.881714,349.509613 239.283218,349.241669 204.605377,346.140472 
	C203.113892,351.176575 205.806595,352.725403 209.582993,352.867767 
	C222.167221,353.342072 234.759232,353.610779 248.306107,353.940674 
z"/>
<path fill="#F58EF1" opacity="1.000000" stroke="none" 
	d="
M200.950104,87.556656 
	C184.741745,94.544090 169.216248,102.575577 155.906952,114.157166 
	C133.693695,133.486893 119.002983,157.249527 114.982880,186.866669 
	C114.270271,192.116638 114.290474,197.466064 113.606522,203.330902 
	C107.819595,207.914062 102.398430,211.935898 96.977264,215.957748 
	C94.229103,217.563828 91.480942,219.169907 88.430397,220.913361 
	C86.355797,219.438614 84.111992,218.122787 82.884155,216.168625 
	C70.362801,196.240143 57.779766,176.343445 45.707249,156.143082 
	C40.270176,147.045471 35.943890,137.283997 31.057781,127.479355 
	C38.844379,123.654770 46.686813,120.174583 55.023289,116.328468 
	C55.694431,115.647408 55.871525,115.332275 56.048615,115.017143 
	C56.048615,115.017143 55.998821,115.087700 56.025780,115.121101 
	C63.623528,112.285172 71.274101,109.608566 78.751480,106.513550 
	C113.434723,92.157600 148.069641,77.684891 182.725632,63.263069 
	C183.181305,63.073448 183.686462,63.002808 184.539246,62.820034 
	C187.006226,66.398346 188.930878,70.146751 191.241104,73.640182 
	C194.302536,78.269531 197.665298,82.699593 200.950104,87.556656 
z"/>
<path fill="#7FAEFE" opacity="1.000000" stroke="none" 
	d="
M179.905289,337.008392 
	C180.364349,337.878876 180.618683,339.040436 180.812729,340.565979 
	C177.017227,344.518524 173.282013,348.107056 169.238388,351.830200 
	C172.520172,347.076416 176.110367,342.187927 179.905289,337.008392 
z"/>
<path fill="#7FAEFE" opacity="1.000000" stroke="none" 
	d="
M165.275024,355.939453 
	C166.039062,354.625854 167.151199,353.282379 168.603058,351.935669 
	C167.836227,353.258148 166.729660,354.583862 165.275024,355.939453 
z"/>
<path fill="#7FAEFE" opacity="1.000000" stroke="none" 
	d="
M164.168854,357.801697 
	C164.101944,357.413483 164.278824,356.845276 164.713165,356.107513 
	C164.784607,356.499207 164.598618,357.060486 164.168854,357.801697 
z"/>
<path fill="#7FAEFE" opacity="1.000000" stroke="none" 
	d="
M163.151642,358.856720 
	C163.101959,358.672516 163.272705,358.365479 163.708664,357.997437 
	C163.773285,358.202240 163.572678,358.468079 163.151642,358.856720 
z"/>
<path fill="#7FAEFE" opacity="1.000000" stroke="none" 
	d="
M161.045715,360.864807 
	C161.020355,360.688202 161.245316,360.402832 161.728424,360.024475 
	C161.756378,360.206329 161.526199,360.481232 161.045715,360.864807 
z"/>
<path fill="#7FAEFE" opacity="1.000000" stroke="none" 
	d="
M162.151215,359.860748 
	C162.107300,359.684448 162.285828,359.384674 162.722015,359.008759 
	C162.777664,359.200836 162.575653,359.469055 162.151215,359.860748 
z"/>
<path fill="#F58FF1" opacity="1.000000" stroke="none" 
	d="
M117.103500,229.627625 
	C121.264587,240.064346 124.609779,250.924301 129.758118,260.848877 
	C140.193497,280.965424 154.376007,298.041504 174.329117,309.626099 
	C176.667953,310.983978 178.025101,312.138214 177.388321,315.408966 
	C176.851822,318.164734 177.946335,321.238037 178.294922,324.602478 
	C176.428787,324.104065 174.136414,323.594940 172.812988,322.179718 
	C156.763031,305.016327 140.700333,287.859467 124.975418,270.399689 
	C116.804344,261.327148 109.295677,251.657990 101.177620,242.092987 
	C103.083160,240.109695 105.298866,238.291763 107.926559,236.100952 
	C108.571236,235.483643 108.803917,235.239197 109.036598,234.994766 
	C109.036598,234.994766 108.989052,234.982986 109.224045,234.900269 
	C109.661133,234.543869 109.863235,234.270172 110.065353,233.996460 
	C110.065353,233.996475 110.000336,234.010971 110.323822,233.902359 
	C112.799377,232.405045 114.951439,231.016342 117.103500,229.627625 
z"/>
<path fill="#71AEFF" opacity="1.000000" stroke="none" 
	d="
M117.125809,229.230194 
	C114.951439,231.016342 112.799377,232.405045 110.336899,233.932983 
	C110.516678,231.037933 111.758286,227.896805 111.345108,224.990952 
	C110.402298,218.360306 106.375870,215.963745 97.416290,215.955688 
	C102.398430,211.935898 107.819595,207.914062 113.579086,203.775330 
	C114.994308,212.049866 116.071213,220.441330 117.125809,229.230194 
z"/>
<path fill="#71AEFF" opacity="1.000000" stroke="none" 
	d="
M108.832375,235.013702 
	C108.803917,235.239197 108.571236,235.483643 108.103706,235.829178 
	C108.121956,235.631073 108.375053,235.331863 108.832375,235.013702 
z"/>
<path fill="#71AEFF" opacity="1.000000" stroke="none" 
	d="
M109.843124,234.121201 
	C109.863235,234.270172 109.661133,234.543869 109.221619,234.924652 
	C109.196442,234.769806 109.408676,234.507874 109.843124,234.121201 
z"/>
<path fill="#6DACFF" opacity="1.000000" stroke="none" 
	d="
M481.766418,299.197693 
	C481.879425,299.371338 481.775787,299.737427 481.453583,300.298950 
	C481.339935,300.126282 481.444855,299.758209 481.766418,299.197693 
z"/>
<path fill="#6DACFF" opacity="1.000000" stroke="none" 
	d="
M421.265045,443.838776 
	C421.212402,443.668945 421.354553,443.368927 421.742676,443.005066 
	C421.873322,443.239014 421.697083,443.494812 421.265045,443.838776 
z"/>
<path fill="#6DACFF" opacity="1.000000" stroke="none" 
	d="
M55.809689,115.151634 
	C55.871525,115.332275 55.694431,115.647408 55.254677,116.085548 
	C55.184933,115.901077 55.377846,115.593597 55.809689,115.151634 
z"/>
<path fill="#6DACFF" opacity="1.000000" stroke="none" 
	d="
M355.188965,284.039490 
	C361.859161,274.405243 368.529388,264.770996 375.449982,254.901932 
	C377.213806,260.062500 383.233948,263.240021 388.756042,261.522705 
	C389.999603,261.135956 391.199921,260.610168 392.819336,260.172668 
	C392.194550,262.626678 391.336700,265.143066 390.121918,267.473419 
	C369.673859,306.699158 349.181335,345.901703 328.520569,385.337830 
	C329.922699,366.054352 331.502991,346.542511 333.367950,326.367554 
	C340.435303,312.456360 347.217957,299.208282 354.000641,285.960236 
	C354.000641,285.960236 353.984192,285.989410 354.233887,285.845520 
	C354.718719,285.147583 354.953827,284.593536 355.188965,284.039490 
z"/>
<path fill="#F58FF1" opacity="1.000000" stroke="none" 
	d="
M273.908905,220.450684 
	C273.084595,219.898895 272.197937,219.420792 271.445343,218.784225 
	C261.289459,210.194183 252.034866,210.348907 242.117920,219.302658 
	C232.891434,227.633011 215.721802,223.185287 211.584473,211.393082 
	C209.255569,204.755249 204.627914,201.772110 198.766922,203.130417 
	C193.813965,204.278290 190.639893,210.086075 191.564102,216.275360 
	C195.508728,242.691620 202.599716,268.288513 211.557449,293.407593 
	C212.077637,294.866333 212.025391,296.529205 212.239532,298.097107 
	C210.364609,298.179321 208.337524,298.771851 206.638199,298.265167 
	C188.891296,292.973785 174.228622,283.113312 162.749741,268.482117 
	C150.089920,252.345718 141.205872,234.549728 138.416443,213.601974 
	C140.413879,211.977402 142.113770,210.925568 143.719269,209.745316 
	C163.835266,194.957581 183.965866,180.189423 204.032623,165.335068 
	C215.788162,156.633072 227.436356,147.786026 239.427780,138.888245 
	C241.059891,138.140442 242.397049,137.508652 244.080353,136.955353 
	C244.849686,137.281754 245.341522,137.457962 245.686157,137.787933 
	C258.344513,149.908112 271.001099,162.030167 283.630127,174.180893 
	C288.855896,179.208710 294.018555,184.302109 299.172729,189.598755 
	C299.021454,190.127670 298.935303,190.431396 298.652405,190.895126 
	C298.272675,191.365784 298.117676,191.684372 297.985107,192.003326 
	C298.007507,192.003693 297.989166,191.962769 297.680725,192.098816 
	C289.551178,201.640152 281.730042,211.045410 273.908905,220.450684 
z"/>
<path fill="#F386F0" opacity="1.000000" stroke="none" 
	d="
M299.209900,189.365662 
	C294.018555,184.302109 288.855896,179.208710 283.630127,174.180893 
	C271.001099,162.030167 258.344513,149.908112 245.686157,137.787933 
	C245.341522,137.457962 244.849686,137.281754 244.283966,136.678818 
	C257.496399,126.487610 270.851349,116.651428 284.206299,106.815247 
	C301.025604,109.963539 316.064636,117.155807 329.717529,127.270287 
	C333.697083,130.218460 337.112946,133.927490 340.761780,137.886230 
	C326.894226,155.445038 313.052063,172.405350 299.209900,189.365662 
z"/>
<path fill="#F48FF1" opacity="1.000000" stroke="none" 
	d="
M277.118927,253.128967 
	C283.009064,251.405884 288.899200,249.682816 294.904602,247.926025 
	C293.850800,255.648575 292.688202,264.281769 291.489685,272.909973 
	C290.737488,278.325317 289.240356,283.749390 289.366699,289.139313 
	C289.468994,293.503052 291.495514,297.821686 292.990417,303.351044 
	C289.729736,305.247467 285.306458,308.004700 280.712860,310.440826 
	C275.925201,312.979858 273.002747,316.476440 272.765076,322.139343 
	C272.723602,323.127625 270.871674,324.795685 269.771942,324.867706 
	C257.859863,325.648010 245.930984,326.171967 233.538269,326.444489 
	C233.033310,325.732208 232.996765,325.341309 232.960220,324.950439 
	C241.833389,320.450165 243.588104,314.085449 238.260025,305.985718 
	C237.662918,305.078003 237.449982,303.917603 237.382568,302.308838 
	C239.880386,299.248932 242.143143,296.825714 244.213928,294.248291 
	C255.208817,280.563202 266.155518,266.839355 277.118927,253.128967 
z"/>
<path fill="#6DACFF" opacity="1.000000" stroke="none" 
	d="
M239.132828,139.004242 
	C227.436356,147.786026 215.788162,156.633072 204.032623,165.335068 
	C183.965866,180.189423 163.835266,194.957581 143.719269,209.745316 
	C142.113770,210.925568 140.413879,211.977402 138.425308,213.210037 
	C138.309952,203.876205 138.527115,194.421265 139.233490,184.489716 
	C159.398422,169.567398 179.042343,155.078110 198.763840,140.695206 
	C207.994843,133.963028 217.375671,127.436295 226.729431,121.235489 
	C224.315964,132.532516 228.274902,138.088531 239.132828,139.004242 
z"/>
<path fill="#F48FF1" opacity="1.000000" stroke="none" 
	d="
M226.688583,120.816444 
	C217.375671,127.436295 207.994843,133.963028 198.763840,140.695206 
	C179.042343,155.078110 159.398422,169.567398 139.396332,184.144424 
	C141.380295,168.790604 148.897568,155.754547 158.655426,143.963837 
	C174.012070,125.407928 193.747986,113.155174 216.694641,105.460556 
	C217.888794,106.838470 218.676727,107.880295 219.429657,108.946838 
	C221.942230,112.505913 224.442261,116.073837 226.877075,119.940659 
	C226.797897,120.449593 226.788757,120.656242 226.756836,120.851341 
	C226.734039,120.839783 226.688583,120.816444 226.688583,120.816444 
z"/>
<path fill="#F590F1" opacity="1.000000" stroke="none" 
	d="
M358.948669,233.992416 
	C353.104584,252.350006 341.211578,266.437988 327.082397,278.896667 
	C322.663788,282.792816 317.963409,286.369385 312.335999,290.952209 
	C313.748138,277.311462 315.261505,265.215027 316.191528,253.073883 
	C317.368011,237.714981 318.069641,222.319702 319.321228,206.518616 
	C326.351898,211.137390 332.934143,216.322815 339.753326,221.175339 
	C346.019135,225.634079 352.540100,229.734253 358.948669,233.992416 
z"/>
<path fill="#F387F0" opacity="1.000000" stroke="none" 
	d="
M359.055176,233.616150 
	C352.540100,229.734253 346.019135,225.634079 339.753326,221.175339 
	C332.934143,216.322815 326.351898,211.137390 319.317017,206.049988 
	C318.666534,205.442032 318.365387,204.881180 318.155060,203.745163 
	C319.212555,202.029160 320.194427,200.900818 321.143646,199.745667 
	C332.430756,186.009827 343.712952,172.269989 354.996429,158.531189 
	C360.879242,167.552505 363.047729,177.873749 363.735657,188.231903 
	C364.413055,198.431061 363.675385,208.775528 362.857513,219.000153 
	C362.472443,223.814453 360.444977,228.497406 359.055176,233.616150 
z"/>
<path fill="#4289E7" opacity="1.000000" stroke="none" 
	d="
M354.969971,158.203384 
	C343.712952,172.269989 332.430756,186.009827 321.143646,199.745667 
	C320.194427,200.900818 319.212555,202.029160 318.066223,203.439133 
	C311.575745,198.721924 308.797150,198.372726 302.165222,201.892548 
	C300.306763,198.630692 299.147980,195.296722 297.989166,191.962769 
	C297.989166,191.962769 298.007507,192.003693 298.224609,191.868149 
	C298.586792,191.402740 298.731934,191.072891 298.877075,190.743042 
	C298.935303,190.431396 299.021454,190.127670 299.172729,189.598755 
	C313.052063,172.405350 326.894226,155.445038 340.907776,138.184952 
	C345.700623,144.548645 350.322083,151.212112 354.969971,158.203384 
z"/>
<path fill="#6EACFF" opacity="1.000000" stroke="none" 
	d="
M276.746094,253.036163 
	C266.155518,266.839355 255.208817,280.563202 244.213928,294.248291 
	C242.143143,296.825714 239.880386,299.248932 237.439850,301.944000 
	C234.731522,293.637482 232.289581,285.130310 229.956955,275.966248 
	C239.516525,263.452881 248.966766,251.596375 258.416992,239.739838 
	C260.103485,241.514908 261.553925,243.631470 263.525452,244.994141 
	C267.662903,247.853867 272.074310,250.317261 276.746094,253.036163 
z"/>
<path fill="#4289E7" opacity="1.000000" stroke="none" 
	d="
M239.427780,138.888245 
	C228.274902,138.088531 224.315964,132.532516 226.729431,121.235489 
	C226.688583,120.816444 226.734039,120.839783 227.034363,120.750107 
	C227.522690,120.325668 227.710709,119.990913 228.107864,119.409363 
	C236.195450,113.235718 244.073914,107.308891 251.952362,101.382057 
	C262.522919,103.023621 273.093445,104.665184 283.935150,106.560997 
	C270.851349,116.651428 257.496399,126.487610 243.937820,136.600311 
	C242.397049,137.508652 241.059891,138.140442 239.427780,138.888245 
z"/>
<path fill="#F391F1" opacity="1.000000" stroke="none" 
	d="
M258.325165,239.397232 
	C248.966766,251.596375 239.516525,263.452881 229.862808,275.584717 
	C226.193558,265.633118 222.727783,255.406189 219.030838,244.497131 
	C225.177963,245.073898 229.892166,245.910904 234.597900,245.865875 
	C241.784271,245.797134 248.053131,242.769943 253.741486,238.512466 
	C255.426407,237.251389 257.104462,235.813797 258.325165,239.397232 
z"/>
<path fill="#F699F2" opacity="1.000000" stroke="none" 
	d="
M227.774429,385.872894 
	C225.133438,385.898254 222.967560,385.927979 220.801697,385.925018 
	C210.525574,385.911011 209.950943,385.325317 209.646957,373.847595 
	C237.053604,378.326843 264.309906,374.534332 291.668915,373.424835 
	C271.132721,380.661591 249.802414,383.819794 227.774429,385.872894 
z"/>
<path fill="#F697F2" opacity="1.000000" stroke="none" 
	d="
M247.827179,353.949463 
	C234.759232,353.610779 222.167221,353.342072 209.582993,352.867767 
	C205.806595,352.725403 203.113892,351.176575 204.605377,346.140472 
	C239.283218,349.241669 273.881714,349.509613 308.299408,343.314270 
	C308.603027,343.795715 308.906616,344.277191 309.210236,344.758667 
	C307.877960,345.715302 306.656433,347.248962 305.194397,347.529663 
	C298.514679,348.811981 291.797791,350.033569 285.038025,350.736511 
	C272.815186,352.007690 260.552277,352.893799 247.827179,353.949463 
z"/>
<path fill="#70ADFF" opacity="1.000000" stroke="none" 
	d="
M297.680725,192.098816 
	C299.147980,195.296722 300.306763,198.630692 301.828674,202.062500 
	C298.465729,213.980347 287.097748,219.104523 279.789062,228.818192 
	C277.556366,225.764587 275.828186,223.400986 274.004456,220.744034 
	C281.730042,211.045410 289.551178,201.640152 297.680725,192.098816 
z"/>
<path fill="#F59DF3" opacity="1.000000" stroke="none" 
	d="
M292.997864,404.412903 
	C268.861450,408.303680 244.689453,411.338959 220.228638,407.869019 
	C245.626648,406.443512 270.751129,403.499908 295.681946,397.225037 
	C295.001129,399.843079 293.999512,402.127991 292.997864,404.412903 
z"/>
<path fill="#F189F0" opacity="1.000000" stroke="none" 
	d="
M251.503754,101.272095 
	C244.073914,107.308891 236.195450,113.235718 227.869385,119.420166 
	C227.421768,119.677773 226.947098,119.638374 226.947098,119.638374 
	C224.442261,116.073837 221.942230,112.505913 219.429657,108.946838 
	C218.676727,107.880295 217.888794,106.838470 217.066238,105.452850 
	C227.892227,99.760193 239.524292,100.896294 251.503754,101.272095 
z"/>
<path fill="#F195F2" opacity="1.000000" stroke="none" 
	d="
M353.657532,285.993622 
	C347.217957,299.208282 340.435303,312.456360 333.414246,325.950745 
	C333.804169,318.777313 334.381134,311.352448 335.119293,303.943665 
	C335.223328,302.899536 335.892639,301.691772 336.677765,300.970764 
	C342.167694,295.928986 347.756958,290.995300 353.657532,285.993622 
z"/>
<path fill="#9FC7FF" opacity="1.000000" stroke="none" 
	d="
M293.422424,404.325195 
	C293.999512,402.127991 295.001129,399.843079 296.097382,397.189789 
	C298.766357,395.898956 301.340668,394.976501 304.076843,393.996063 
	C304.035339,403.019989 304.035339,403.019989 293.422424,404.325195 
z"/>
<path fill="#8ABDFF" opacity="1.000000" stroke="none" 
	d="
M218.847473,326.010254 
	C213.392273,325.622345 207.914261,325.412811 202.498154,324.719543 
	C201.165222,324.548920 200.034088,322.801727 198.810196,321.779297 
	C199.106552,321.350128 199.402924,320.920990 199.699280,320.491852 
	C205.936783,321.835114 212.174286,323.178375 218.690948,324.986969 
	C218.929214,325.638275 218.888351,325.824249 218.847473,326.010254 
z"/>
<path fill="#F9BBF7" opacity="1.000000" stroke="none" 
	d="
M219.197754,326.249695 
	C218.888351,325.824249 218.929214,325.638275 219.029572,325.171997 
	C223.405884,324.908661 227.722717,324.925629 232.499878,324.946533 
	C232.996765,325.341309 233.033310,325.732208 233.113007,326.410370 
	C228.620117,326.628174 224.084061,326.558655 219.197754,326.249695 
z"/>
<path fill="#F195F2" opacity="1.000000" stroke="none" 
	d="
M354.916473,284.194153 
	C354.953827,284.593536 354.718719,285.147583 354.224548,285.859375 
	C354.191650,285.461029 354.417816,284.904907 354.916473,284.194153 
z"/>
<path fill="#70ADFF" opacity="1.000000" stroke="none" 
	d="
M298.652405,190.895126 
	C298.731934,191.072891 298.586792,191.402740 298.202179,191.867783 
	C298.117676,191.684372 298.272675,191.365784 298.652405,190.895126 
z"/>
<path fill="#6DACFF" opacity="1.000000" stroke="none" 
	d="
M226.877075,119.940659 
	C226.947098,119.638374 227.421768,119.677773 227.660248,119.666969 
	C227.710709,119.990913 227.522690,120.325668 227.057159,120.761658 
	C226.788757,120.656242 226.797897,120.449593 226.877075,119.940659 
z"/>
</svg>