<svg version="1.1" id="Layer_1" xmlns="http://www.w3.org/2000/svg" xmlns:xlink="http://www.w3.org/1999/xlink" x="0px" y="0px"
	 width="100%" viewBox="0 0 500 500" enable-background="new 0 0 500 500" xml:space="preserve">
<path fill="#6E442B" opacity="1.000000" stroke="none" 
	d="
M501.000000,309.000000 
	C501.000000,372.967377 501.000000,436.934784 501.000000,500.951080 
	C334.450897,500.951080 167.901779,500.951080 1.000000,500.951080 
	C1.000000,445.646271 1.000000,390.291809 1.425957,334.471558 
	C2.683755,333.982910 3.547600,334.099457 4.342794,333.916931 
	C30.226931,327.975983 56.616966,325.851349 82.999062,324.177216 
	C100.888115,323.042053 118.869926,323.368744 136.913757,323.453430 
	C137.315552,326.006470 137.581512,328.152832 137.916962,330.288239 
	C144.075653,369.493195 164.871689,397.333191 202.825485,410.166748 
	C233.311798,420.475250 264.712402,419.845398 295.844055,412.477539 
	C316.898499,407.494690 334.247681,396.161163 347.992279,379.354065 
	C360.029175,364.635193 366.634216,347.656586 369.749756,328.998901 
	C380.482086,327.675049 390.851471,326.622406 401.127350,324.983307 
	C422.184021,321.624542 443.176178,317.862823 464.223206,314.441162 
	C476.453766,312.452820 488.739227,310.802429 501.000000,309.000000 
M64.159019,360.693634 
	C60.687412,365.741852 57.137341,370.738342 53.766739,375.853119 
	C50.540989,380.748108 51.313862,385.705750 55.608547,389.070190 
	C59.588531,392.188049 64.315483,392.077057 67.884636,387.429230 
	C74.929482,378.255310 81.661209,368.788147 87.721092,358.948700 
	C89.190910,356.562195 88.746208,351.451263 87.095726,348.994659 
	C83.068779,343.000916 76.127914,343.913727 71.409691,350.339722 
	C69.058937,353.541321 66.832115,356.833893 64.159019,360.693634 
M328.859558,444.308044 
	C329.753235,442.520264 330.670441,440.743744 331.535889,438.942413 
	C333.590210,434.666809 332.418182,429.301025 328.951477,427.000366 
	C324.410522,423.986908 319.577393,424.475433 316.341034,429.215729 
	C312.140656,435.368134 308.551971,441.947052 304.849060,448.427521 
	C301.518860,454.255707 302.697144,459.827728 307.666626,462.812805 
	C312.121124,465.488617 317.115601,463.951324 320.776367,458.335571 
	C323.584351,454.027985 325.948273,449.430939 328.859558,444.308044 
M469.156769,433.924011 
	C470.275482,432.942535 471.503632,432.059814 472.493866,430.962402 
	C476.638916,426.368622 477.264801,419.813995 474.172546,414.356812 
	C470.634766,408.113434 464.831940,405.682373 456.722961,407.046356 
	C452.413574,407.771240 446.810486,413.693329 446.096344,418.458588 
	C445.185364,424.537109 446.962433,429.757599 452.028442,433.331665 
	C457.182648,436.967926 462.798492,437.177765 469.156769,433.924011 
M133.876907,386.096893 
	C131.380280,386.901733 128.114517,387.039795 126.644920,388.734985 
	C125.583344,389.959503 126.026688,394.048889 127.322838,395.487640 
	C132.993271,401.782043 139.073456,407.734222 145.308792,413.480896 
	C148.222305,416.166046 151.866821,417.764587 155.420105,414.043823 
	C158.185944,411.147583 157.708603,407.178345 153.924194,403.500061 
	C148.807114,398.526581 143.559143,393.686127 138.304062,388.857483 
	C137.223450,387.864532 135.864136,387.174927 133.876907,386.096893 
M80.020584,450.516663 
	C79.711243,444.204041 76.204048,440.879120 69.965004,440.983673 
	C62.830055,441.103241 59.006256,444.591187 58.990925,450.993866 
	C58.977058,456.785553 63.394932,461.612335 69.020073,461.951324 
	C74.430244,462.277344 79.362282,457.526550 80.020584,450.516663 
M415.420746,347.987152 
	C413.680206,348.966400 410.599884,349.794159 410.468628,350.955322 
	C410.163666,353.652954 410.453369,357.139465 411.995758,359.173645 
	C415.180603,363.373901 419.306122,366.869965 423.109772,370.589142 
	C426.379303,373.786133 430.495850,374.054626 433.205048,371.262939 
	C436.656616,367.706268 434.848206,364.550598 432.164154,361.703796 
	C428.857971,358.197266 425.482361,354.738831 421.915955,351.502960 
	C420.293335,350.030701 418.140472,349.142853 415.420746,347.987152 
M373.009705,466.985687 
	C372.344208,471.424652 373.596863,475.318146 378.144531,476.312042 
	C380.757446,476.883087 384.525421,476.225677 386.544678,474.597412 
	C390.531219,471.382782 389.691589,465.363708 385.589142,462.118286 
	C381.406067,458.809082 377.206635,460.175293 373.009705,466.985687 
M206.549377,450.290894 
	C205.623444,449.356689 204.778244,447.747406 203.755219,447.625092 
	C201.434906,447.347595 198.628250,447.121735 196.793930,448.196686 
	C195.555389,448.922455 194.679626,452.376495 195.363785,453.756012 
	C196.280228,455.603882 198.707184,457.451691 200.759598,457.835999 
	C205.492065,458.722076 206.998764,456.728149 206.549377,450.290894 
M380.351593,391.187836 
	C377.005280,389.811951 373.843262,389.997406 373.205566,394.061462 
	C372.891541,396.062836 374.018372,399.394562 375.544891,400.252106 
	C376.914246,401.021301 380.246613,399.805695 381.776245,398.426697 
	C384.082672,396.347351 383.392822,393.649933 380.351593,391.187836 
z"/>
<path fill="#FFFFFF" opacity="1.000000" stroke="none" 
	d="
M155.000000,1.000000 
	C197.354233,1.000000 239.708450,1.000000 282.383698,1.303166 
	C277.931488,8.195749 273.138214,14.770751 268.388489,21.377090 
	C249.005569,48.336620 229.603561,75.282555 210.279449,102.284203 
	C203.731155,111.434151 197.392197,120.733902 190.808990,130.029419 
	C190.788086,130.079575 190.915787,130.065491 191.505829,130.066376 
	C197.926529,130.742981 203.884918,131.404648 210.107956,132.281342 
	C214.239212,136.337036 218.105804,140.177704 222.015137,144.390167 
	C231.929993,163.861984 218.944885,193.874680 191.613678,190.980209 
	C186.172882,188.217316 181.089523,185.559311 175.863922,182.599213 
	C173.537567,179.093552 171.353485,175.889984 169.130463,172.314392 
	C168.324875,169.362656 167.558197,166.782928 166.412369,162.927368 
	C163.676712,166.966049 161.765411,169.787735 159.403320,172.696579 
	C115.210297,172.893341 71.468071,173.002930 27.804317,172.752869 
	C28.504330,171.224228 28.984604,169.949677 29.767967,168.901672 
	C51.811981,139.410294 73.925232,109.970627 95.944748,80.461006 
	C115.680580,54.011871 135.318741,27.489859 155.000000,1.000000 
z"/>
<path fill="#BBDEE3" opacity="1.000000" stroke="none" 
	d="
M348.000000,1.000001 
	C384.020905,1.000000 420.041779,1.000000 456.397736,1.314116 
	C456.227081,2.485568 455.782593,3.386555 455.206787,4.193884 
	C438.666138,27.384996 422.123901,50.574966 405.557007,73.747345 
	C392.746155,91.666084 379.842285,109.518616 367.091003,127.479561 
	C356.641479,142.198395 346.355896,157.033646 335.543823,171.887512 
	C331.445984,172.013580 327.802032,172.069427 323.935669,171.846619 
	C314.443542,157.987045 305.389099,144.252167 295.827454,130.879990 
	C289.572266,122.132011 282.582214,113.909531 276.031677,105.104645 
	C280.236053,98.921600 284.328217,93.084320 288.424316,87.249794 
	C304.428955,64.452477 320.478241,41.686253 336.410248,18.838306 
	C340.463928,13.024973 344.146759,6.953089 348.000000,1.000001 
z"/>
<path fill="#BBDEE3" opacity="1.000000" stroke="none" 
	d="
M480.000000,0.999999 
	C486.983917,1.000000 493.967865,1.000000 501.000000,1.000000 
	C501.000000,57.354218 501.000000,113.708450 500.572571,170.597244 
	C491.680145,171.370941 483.215942,171.781693 474.750122,171.817230 
	C448.801117,171.926132 422.851501,171.910599 396.902130,171.903580 
	C384.264648,171.900177 371.627197,171.808121 359.158569,171.474091 
	C359.650635,170.611404 359.920929,169.993057 360.304657,169.455704 
	C378.589264,143.851074 396.872681,118.245567 415.180847,92.657791 
	C428.286713,74.340858 441.499512,56.099968 454.526855,37.727463 
	C463.144135,25.574486 471.517456,13.248520 480.000000,0.999999 
z"/>
<path fill="#8B5C40" opacity="1.000000" stroke="none" 
	d="
M136.810257,323.041626 
	C118.869926,323.368744 100.888115,323.042053 82.999062,324.177216 
	C56.616966,325.851349 30.226931,327.975983 4.342794,333.916931 
	C3.547600,334.099457 2.683755,333.982910 1.425957,334.002899 
	C1.000000,304.645782 1.000000,275.291534 1.416563,245.499603 
	C3.769599,244.699905 5.715496,244.381851 7.641042,243.968887 
	C21.799801,240.932312 35.954494,237.876770 50.353760,235.061829 
	C54.040104,239.053238 57.194080,243.142380 61.014553,246.465225 
	C64.271904,249.298325 68.268898,248.671188 71.445694,245.843903 
	C74.522469,243.105621 74.775223,239.497101 73.245186,235.814056 
	C72.682152,234.458725 71.734695,233.263092 71.433296,232.013519 
	C85.796883,232.343231 99.730553,232.103653 113.570442,233.129410 
	C125.861282,234.040344 138.048065,236.355347 150.222412,238.444275 
	C147.815475,246.545349 145.466888,254.252762 142.752167,262.003510 
	C137.219574,265.741608 136.509995,269.743713 140.183197,274.798309 
	C136.951370,291.004059 136.014679,306.962036 136.810257,323.041626 
z"/>
<path fill="#8B5C40" opacity="1.000000" stroke="none" 
	d="
M501.000000,308.531342 
	C488.739227,310.802429 476.453766,312.452820 464.223206,314.441162 
	C443.176178,317.862823 422.184021,321.624542 401.127350,324.983307 
	C390.851471,326.622406 380.482086,327.675049 369.676270,328.579834 
	C371.492584,309.950287 369.781708,291.940643 365.513092,274.237152 
	C362.251221,260.708862 358.000397,247.419037 354.597046,234.010193 
	C371.318329,232.335693 387.632050,230.674164 403.924957,229.386414 
	C401.424255,237.031708 402.689514,241.816833 407.618988,243.809494 
	C412.936493,245.959015 417.259155,243.286087 420.427368,236.027222 
	C421.480042,233.615417 422.778717,231.311005 424.385712,229.001831 
	C450.204315,231.697433 475.602173,234.348724 501.000000,237.000000 
	C501.000000,260.687561 501.000000,284.375122 501.000000,308.531342 
z"/>
<path fill="#BBDEE3" opacity="1.000000" stroke="none" 
	d="
M154.531342,1.000000 
	C135.318741,27.489859 115.680580,54.011871 95.944748,80.461006 
	C73.925232,109.970627 51.811981,139.410294 29.767967,168.901672 
	C28.984604,169.949677 28.504330,171.224228 27.366352,172.778656 
	C18.233273,173.109406 9.616636,173.054703 1.000000,173.000000 
	C1.000000,155.645767 1.000000,138.291550 1.271248,120.276749 
	C2.725007,118.022011 3.907182,116.427574 5.090081,114.833687 
	C24.709467,88.397789 44.365002,61.988602 63.931583,35.513680 
	C72.382423,24.079109 80.649467,12.508702 89.000000,1.000000 
	C110.687561,1.000000 132.375122,1.000000 154.531342,1.000000 
z"/>
<path fill="#C18C5D" opacity="1.000000" stroke="none" 
	d="
M150.280777,238.050598 
	C138.048065,236.355347 125.861282,234.040344 113.570442,233.129410 
	C99.730553,232.103653 85.796883,232.343231 71.129166,231.884430 
	C68.119308,229.551514 65.990852,227.242737 63.626514,225.208084 
	C59.064449,221.282104 52.466381,222.647873 50.623650,228.030212 
	C49.911400,230.110596 50.250401,232.550873 50.110466,234.827194 
	C35.954494,237.876770 21.799801,240.932312 7.641042,243.968887 
	C5.715496,244.381851 3.769599,244.699905 1.416563,245.030945 
	C1.000000,227.645767 1.000000,210.291550 1.468635,192.473816 
	C51.959259,192.006683 101.981247,192.003052 152.005280,192.402863 
	C152.446915,200.988571 156.360550,203.768585 165.189178,202.547668 
	C160.212143,214.628448 155.246460,226.339523 150.280777,238.050598 
z"/>
<path fill="#C18C5D" opacity="1.000000" stroke="none" 
	d="
M403.945770,229.012634 
	C387.632050,230.674164 371.318329,232.335693 354.399719,233.696350 
	C347.501831,219.277313 341.208862,205.159164 335.385437,191.028717 
	C340.228607,191.020935 344.602173,191.025467 349.122742,191.353821 
	C350.890533,194.678268 352.071136,198.052704 354.230682,200.595810 
	C357.877075,204.889709 365.222229,203.826004 367.346497,198.731979 
	C368.293823,196.460266 367.807404,193.590652 368.442139,190.995972 
	C412.941742,190.666351 456.970856,190.333176 501.000000,190.000000 
	C501.000000,205.354233 501.000000,220.708450 501.000000,236.531342 
	C475.602173,234.348724 450.204315,231.697433 424.395721,228.619781 
	C424.476715,226.804443 424.921356,225.396637 425.468353,224.029800 
	C427.888397,217.982620 426.623077,212.682373 422.248596,210.674820 
	C417.361481,208.432007 413.311035,210.439896 410.113251,216.729614 
	C408.036896,220.813522 406.000214,224.917603 403.945770,229.012634 
z"/>
<path fill="#BBDEE3" opacity="1.000000" stroke="none" 
	d="
M209.843292,132.066299 
	C203.884918,131.404648 197.926529,130.742981 191.485565,130.043610 
	C191.002975,130.005890 190.957596,129.965195 190.957596,129.965195 
	C197.392197,120.733902 203.731155,111.434151 210.279449,102.284203 
	C229.603561,75.282555 249.005569,48.336620 268.388489,21.377090 
	C273.138214,14.770751 277.931488,8.195749 282.852356,1.303166 
	C294.020905,1.000000 305.041779,1.000000 316.527161,1.358572 
	C316.495758,2.761232 316.137146,3.901356 315.483826,4.835334 
	C299.708496,27.386864 283.860901,49.887959 268.133789,72.472992 
	C264.844757,77.196236 261.979309,82.214439 258.572693,86.971306 
	C251.894867,84.218887 249.384583,84.517082 244.955627,89.415604 
	C237.817322,97.310699 230.763947,105.294426 223.974213,113.488892 
	C219.014481,119.474701 214.536179,125.859406 209.843292,132.066299 
z"/>
<path fill="#95CAD1" opacity="1.000000" stroke="none" 
	d="
M479.531372,0.999999 
	C471.517456,13.248520 463.144135,25.574486 454.526855,37.727463 
	C441.499512,56.099968 428.286713,74.340858 415.180847,92.657791 
	C396.872681,118.245567 378.589264,143.851074 360.304657,169.455704 
	C359.920929,169.993057 359.650635,170.611404 358.696075,171.551758 
	C350.709045,171.880112 343.353363,171.848709 335.997650,171.817291 
	C346.355896,157.033646 356.641479,142.198395 367.091003,127.479561 
	C379.842285,109.518616 392.746155,91.666084 405.557007,73.747345 
	C422.123901,50.574966 438.666138,27.384996 455.206787,4.193884 
	C455.782593,3.386555 456.227081,2.485568 456.866394,1.314116 
	C464.354248,1.000000 471.708496,1.000000 479.531372,0.999999 
z"/>
<path fill="#DDA370" opacity="1.000000" stroke="none" 
	d="
M152.003235,191.999420 
	C101.981247,192.003052 51.959259,192.006683 1.468635,192.005157 
	C1.000000,185.978851 1.000000,179.957703 1.000000,173.468277 
	C9.616636,173.054703 18.233273,173.109406 27.287872,173.138306 
	C71.468071,173.002930 115.210297,172.893341 159.860046,172.806107 
	C163.568176,172.781097 166.368790,172.733749 169.169403,172.686401 
	C171.353485,175.889984 173.537567,179.093552 175.696518,182.903442 
	C173.776520,186.676575 171.881668,189.843414 169.986176,192.604340 
	C170.261627,187.390427 168.242752,184.008987 163.423233,183.135635 
	C158.688004,182.277542 155.573120,184.896729 153.526596,188.974274 
	C153.020142,189.983337 152.511093,190.991074 152.003235,191.999420 
z"/>
<path fill="#DCA26F" opacity="1.000000" stroke="none" 
	d="
M335.543823,171.887512 
	C343.353363,171.848709 350.709045,171.880112 358.527222,171.833862 
	C371.627197,171.808121 384.264648,171.900177 396.902130,171.903580 
	C422.851501,171.910599 448.801117,171.926132 474.750122,171.817230 
	C483.215942,171.781693 491.680145,171.370941 500.572571,171.065903 
	C501.000000,177.021149 501.000000,183.042297 501.000000,189.531723 
	C456.970856,190.333176 412.941742,190.666351 368.169983,190.795135 
	C366.353424,188.544373 365.366333,186.446487 364.188873,184.461533 
	C360.929016,178.966141 353.648132,178.285370 350.293213,183.496246 
	C349.021484,185.471466 349.367249,188.488068 348.975769,191.030014 
	C344.602173,191.025467 340.228607,191.020935 335.120972,190.815277 
	C330.977325,184.451202 327.567688,178.288254 324.158051,172.125275 
	C327.802032,172.069427 331.445984,172.013580 335.543823,171.887512 
z"/>
<path fill="#FEFFFF" opacity="1.000000" stroke="none" 
	d="
M258.918640,87.096725 
	C261.979309,82.214439 264.844757,77.196236 268.133789,72.472992 
	C283.860901,49.887959 299.708496,27.386864 315.483826,4.835334 
	C316.137146,3.901356 316.495758,2.761232 316.995819,1.358572 
	C327.020905,1.000000 337.041779,1.000000 347.531342,1.000001 
	C344.146759,6.953089 340.463928,13.024973 336.410248,18.838306 
	C320.478241,41.686253 304.428955,64.452477 288.424316,87.249794 
	C284.328217,93.084320 280.236053,98.921600 275.720154,104.934784 
	C269.838348,99.106873 264.378510,93.101791 258.918640,87.096725 
z"/>
<path fill="#BBDEE3" opacity="1.000000" stroke="none" 
	d="
M0.999999,88.000000 
	C1.000000,59.083706 1.000000,30.167416 1.000000,1.000000 
	C22.353571,1.000000 43.708126,1.000000 65.381363,1.300511 
	C50.932781,21.499073 36.202950,41.425064 21.381348,61.282558 
	C14.681643,70.258591 7.799417,79.098389 0.999999,88.000000 
z"/>
<path fill="#95CAD1" opacity="1.000000" stroke="none" 
	d="
M0.999999,88.468658 
	C7.799417,79.098389 14.681643,70.258591 21.381348,61.282558 
	C36.202950,41.425064 50.932781,21.499073 65.850021,1.300511 
	C73.354256,1.000000 80.708504,1.000000 88.531380,1.000000 
	C80.649467,12.508702 72.382423,24.079109 63.931583,35.513680 
	C44.365002,61.988602 24.709467,88.397789 5.090081,114.833687 
	C3.907182,116.427574 2.725007,118.022011 1.271248,119.808090 
	C1.000000,109.645775 1.000000,99.291542 0.999999,88.468658 
z"/>
<path fill="#2A9DC6" opacity="1.000000" stroke="none" 
	d="
M258.572693,86.971298 
	C264.378510,93.101791 269.838348,99.106873 275.609741,105.281815 
	C282.582214,113.909531 289.572266,122.132011 295.827454,130.879990 
	C305.389099,144.252167 314.443542,157.987045 323.935669,171.846619 
	C327.567688,178.288254 330.977325,184.451202 334.651428,190.827591 
	C341.208862,205.159164 347.501831,219.277313 353.992126,233.709290 
	C358.000397,247.419037 362.251221,260.708862 365.513092,274.237152 
	C369.781708,291.940643 371.492584,309.950287 369.270996,328.585602 
	C366.634216,347.656586 360.029175,364.635193 347.992279,379.354065 
	C334.247681,396.161163 316.898499,407.494690 295.844055,412.477539 
	C264.712402,419.845398 233.311798,420.475250 202.825485,410.166748 
	C164.871689,397.333191 144.075653,369.493195 137.916962,330.288239 
	C137.581512,328.152832 137.315552,326.006470 136.913757,323.453430 
	C136.014679,306.962036 136.951370,291.004059 140.423248,274.480682 
	C141.491180,269.823486 142.304733,265.891815 143.118286,261.960175 
	C145.466888,254.252762 147.815475,246.545349 150.222412,238.444275 
	C155.246460,226.339523 160.212143,214.628448 165.164474,202.516632 
	C165.151138,202.115875 165.073181,202.125107 165.335785,202.048828 
	C165.725998,201.640152 165.853622,201.307755 166.231644,200.750610 
	C167.650299,198.020645 168.818558,195.515457 169.986816,193.010254 
	C171.881668,189.843414 173.776520,186.676575 175.838776,183.205521 
	C181.089523,185.559311 186.172882,188.217316 191.620621,191.350403 
	C187.470535,201.240677 182.769211,210.571564 178.475372,220.086334 
	C163.432022,253.420959 153.012360,287.734039 156.994232,324.981232 
	C158.994354,343.690613 165.532745,360.539520 178.778656,374.093079 
	C194.323318,389.998749 214.346085,396.616180 235.864822,397.728485 
	C253.372498,398.633392 271.090393,399.342865 288.446747,395.009216 
	C310.764557,389.436707 328.656494,377.949493 339.485718,357.020721 
	C351.748230,333.321930 351.995453,308.116486 347.623352,282.719391 
	C341.370789,246.398788 326.991943,213.016937 307.400391,182.077209 
	C294.909332,162.350845 280.696838,143.705673 267.031952,124.737228 
	C263.216034,119.440292 258.603058,114.717567 253.579727,108.820457 
	C245.250961,118.452156 237.617798,127.385185 229.850372,136.199905 
	C227.409851,138.969482 224.608566,141.421173 221.972412,144.018356 
	C218.105804,140.177704 214.239212,136.337036 210.107956,132.281342 
	C214.536179,125.859406 219.014481,119.474701 223.974213,113.488892 
	C230.763947,105.294426 237.817322,97.310699 244.955627,89.415604 
	C249.384583,84.517082 251.894867,84.218887 258.572693,86.971298 
z"/>
<path fill="#8A5C40" opacity="1.000000" stroke="none" 
	d="
M64.354126,360.389465 
	C66.832115,356.833893 69.058937,353.541321 71.409691,350.339722 
	C76.127914,343.913727 83.068779,343.000916 87.095726,348.994659 
	C88.746208,351.451263 89.190910,356.562195 87.721092,358.948700 
	C81.661209,368.788147 74.929482,378.255310 67.884636,387.429230 
	C64.315483,392.077057 59.588531,392.188049 55.608547,389.070190 
	C51.313862,385.705750 50.540989,380.748108 53.766739,375.853119 
	C57.137341,370.738342 60.687412,365.741852 64.354126,360.389465 
z"/>
<path fill="#8A5B40" opacity="1.000000" stroke="none" 
	d="
M328.684631,444.635315 
	C325.948273,449.430939 323.584351,454.027985 320.776367,458.335571 
	C317.115601,463.951324 312.121124,465.488617 307.666626,462.812805 
	C302.697144,459.827728 301.518860,454.255707 304.849060,448.427521 
	C308.551971,441.947052 312.140656,435.368134 316.341034,429.215729 
	C319.577393,424.475433 324.410522,423.986908 328.951477,427.000366 
	C332.418182,429.301025 333.590210,434.666809 331.535889,438.942413 
	C330.670441,440.743744 329.753235,442.520264 328.684631,444.635315 
z"/>
<path fill="#8B5C40" opacity="1.000000" stroke="none" 
	d="
M468.806824,434.089233 
	C462.798492,437.177765 457.182648,436.967926 452.028442,433.331665 
	C446.962433,429.757599 445.185364,424.537109 446.096344,418.458588 
	C446.810486,413.693329 452.413574,407.771240 456.722961,407.046356 
	C464.831940,405.682373 470.634766,408.113434 474.172546,414.356812 
	C477.264801,419.813995 476.638916,426.368622 472.493866,430.962402 
	C471.503632,432.059814 470.275482,432.942535 468.806824,434.089233 
z"/>
<path fill="#8A5B3F" opacity="1.000000" stroke="none" 
	d="
M134.255096,386.221191 
	C135.864136,387.174927 137.223450,387.864532 138.304062,388.857483 
	C143.559143,393.686127 148.807114,398.526581 153.924194,403.500061 
	C157.708603,407.178345 158.185944,411.147583 155.420105,414.043823 
	C151.866821,417.764587 148.222305,416.166046 145.308792,413.480896 
	C139.073456,407.734222 132.993271,401.782043 127.322838,395.487640 
	C126.026688,394.048889 125.583344,389.959503 126.644920,388.734985 
	C128.114517,387.039795 131.380280,386.901733 134.255096,386.221191 
z"/>
<path fill="#8A5C40" opacity="1.000000" stroke="none" 
	d="
M80.020248,450.936218 
	C79.362282,457.526550 74.430244,462.277344 69.020073,461.951324 
	C63.394932,461.612335 58.977058,456.785553 58.990925,450.993866 
	C59.006256,444.591187 62.830055,441.103241 69.965004,440.983673 
	C76.204048,440.879120 79.711243,444.204041 80.020248,450.936218 
z"/>
<path fill="#8A5B3F" opacity="1.000000" stroke="none" 
	d="
M415.824432,347.988525 
	C418.140472,349.142853 420.293335,350.030701 421.915955,351.502960 
	C425.482361,354.738831 428.857971,358.197266 432.164154,361.703796 
	C434.848206,364.550598 436.656616,367.706268 433.205048,371.262939 
	C430.495850,374.054626 426.379303,373.786133 423.109772,370.589142 
	C419.306122,366.869965 415.180603,363.373901 411.995758,359.173645 
	C410.453369,357.139465 410.163666,353.652954 410.468628,350.955322 
	C410.599884,349.794159 413.680206,348.966400 415.824432,347.988525 
z"/>
<path fill="#8A5B3F" opacity="1.000000" stroke="none" 
	d="
M373.054504,466.583679 
	C377.206635,460.175293 381.406067,458.809082 385.589142,462.118286 
	C389.691589,465.363708 390.531219,471.382782 386.544678,474.597412 
	C384.525421,476.225677 380.757446,476.883087 378.144531,476.312042 
	C373.596863,475.318146 372.344208,471.424652 373.054504,466.583679 
z"/>
<path fill="#8A5B3F" opacity="1.000000" stroke="none" 
	d="
M206.704559,450.663330 
	C206.998764,456.728149 205.492065,458.722076 200.759598,457.835999 
	C198.707184,457.451691 196.280228,455.603882 195.363785,453.756012 
	C194.679626,452.376495 195.555389,448.922455 196.793930,448.196686 
	C198.628250,447.121735 201.434906,447.347595 203.755219,447.625092 
	C204.778244,447.747406 205.623444,449.356689 206.704559,450.663330 
z"/>
<path fill="#885A3E" opacity="1.000000" stroke="none" 
	d="
M380.668640,391.397797 
	C383.392822,393.649933 384.082672,396.347351 381.776245,398.426697 
	C380.246613,399.805695 376.914246,401.021301 375.544891,400.252106 
	C374.018372,399.394562 372.891541,396.062836 373.205566,394.061462 
	C373.843262,389.997406 377.005280,389.811951 380.668640,391.397797 
z"/>
<path fill="#5AB9DB" opacity="1.000000" stroke="none" 
	d="
M222.015137,144.390167 
	C224.608566,141.421173 227.409851,138.969482 229.850372,136.199905 
	C237.617798,127.385185 245.250961,118.452156 253.579727,108.820457 
	C258.603058,114.717567 263.216034,119.440292 267.031952,124.737228 
	C280.696838,143.705673 294.909332,162.350845 307.400391,182.077209 
	C326.991943,213.016937 341.370789,246.398788 347.623352,282.719391 
	C351.995453,308.116486 351.748230,333.321930 339.485718,357.020721 
	C328.656494,377.949493 310.764557,389.436707 288.446747,395.009216 
	C271.090393,399.342865 253.372498,398.633392 235.864822,397.728485 
	C214.346085,396.616180 194.323318,389.998749 178.778656,374.093079 
	C165.532745,360.539520 158.994354,343.690613 156.994232,324.981232 
	C153.012360,287.734039 163.432022,253.420959 178.475372,220.086334 
	C182.769211,210.571564 187.470535,201.240677 191.978058,191.455292 
	C218.944885,193.874680 231.929993,163.861984 222.015137,144.390167 
M233.619537,199.678574 
	C241.497177,197.120728 245.331436,191.311249 243.342499,184.946777 
	C241.373093,178.644775 235.445358,175.011734 229.470703,176.444946 
	C222.611313,178.090363 219.466324,183.585022 219.887497,191.902603 
	C216.797150,193.813705 212.671646,195.012802 210.786804,197.753082 
	C199.722672,213.838715 193.540024,232.127457 189.169754,250.924454 
	C186.598862,261.982117 185.173828,273.374817 184.155853,284.699738 
	C183.524994,291.718079 188.862839,297.203705 195.170990,297.971497 
	C202.009689,298.803864 208.113815,295.051239 209.989929,288.217194 
	C211.117050,284.111481 211.523117,279.771698 211.914185,275.506042 
	C213.949081,253.310043 219.907303,232.273849 229.749710,212.254471 
	C231.581940,208.527710 231.925323,204.069000 233.619537,199.678574 
M219.622543,317.456360 
	C215.873077,309.469788 209.854706,305.965271 201.779648,307.066406 
	C193.605408,308.181030 189.685898,311.893250 188.183060,319.944061 
	C186.860565,327.028717 191.048508,335.321045 197.401886,338.197845 
	C204.907059,341.596222 211.766800,339.895294 216.978836,333.498383 
	C220.724579,328.901123 220.157104,323.570068 219.622543,317.456360 
z"/>
<path fill="#C3DDDE" opacity="1.000000" stroke="none" 
	d="
M169.130463,172.314392 
	C166.368790,172.733749 163.568176,172.781097 160.310837,172.718933 
	C161.765411,169.787735 163.676712,166.966049 166.412369,162.927368 
	C167.558197,166.782928 168.324875,169.362656 169.130463,172.314392 
z"/>
<path fill="#BBDEE3" opacity="1.000000" stroke="none" 
	d="
M191.023224,130.028656 
	C190.915787,130.065491 190.788086,130.079575 190.808990,130.029419 
	C190.957596,129.965195 191.002975,130.005890 191.023224,130.028656 
z"/>
<path fill="#E7AF7D" opacity="1.000000" stroke="none" 
	d="
M50.353760,235.061829 
	C50.250401,232.550873 49.911400,230.110596 50.623650,228.030212 
	C52.466381,222.647873 59.064449,221.282104 63.626514,225.208084 
	C65.990852,227.242737 68.119308,229.551514 70.658463,231.865540 
	C71.734695,233.263092 72.682152,234.458725 73.245186,235.814056 
	C74.775223,239.497101 74.522469,243.105621 71.445694,245.843903 
	C68.268898,248.671188 64.271904,249.298325 61.014553,246.465225 
	C57.194080,243.142380 54.040104,239.053238 50.353760,235.061829 
z"/>
<path fill="#D2A77D" opacity="1.000000" stroke="none" 
	d="
M142.752167,262.003510 
	C142.304733,265.891815 141.491180,269.823486 140.437592,274.072754 
	C136.509995,269.743713 137.219574,265.741608 142.752167,262.003510 
z"/>
<path fill="#E8B07E" opacity="1.000000" stroke="none" 
	d="
M403.924957,229.386429 
	C406.000214,224.917603 408.036896,220.813522 410.113251,216.729614 
	C413.311035,210.439896 417.361481,208.432007 422.248596,210.674820 
	C426.623077,212.682373 427.888397,217.982620 425.468353,224.029800 
	C424.921356,225.396637 424.476715,226.804443 423.974945,228.575455 
	C422.778717,231.311005 421.480042,233.615417 420.427368,236.027222 
	C417.259155,243.286087 412.936493,245.959015 407.618988,243.809494 
	C402.689514,241.816833 401.424255,237.031708 403.924957,229.386429 
z"/>
<path fill="#E8B07F" opacity="1.000000" stroke="none" 
	d="
M169.986191,192.604340 
	C168.818558,195.515457 167.650299,198.020645 166.003510,200.873352 
	C165.374390,201.522263 165.223785,201.823685 165.073181,202.125107 
	C165.073181,202.125107 165.151138,202.115875 165.175842,202.146927 
	C156.360550,203.768585 152.446915,200.988571 152.005280,192.402863 
	C152.511093,190.991074 153.020142,189.983337 153.526596,188.974274 
	C155.573120,184.896729 158.688004,182.277542 163.423233,183.135635 
	C168.242752,184.008987 170.261627,187.390427 169.986191,192.604340 
z"/>
<path fill="#E9B07E" opacity="1.000000" stroke="none" 
	d="
M349.122742,191.353821 
	C349.367249,188.488068 349.021484,185.471466 350.293213,183.496246 
	C353.648132,178.285370 360.929016,178.966141 364.188873,184.461533 
	C365.366333,186.446487 366.353424,188.544373 367.699524,190.791565 
	C367.807404,193.590652 368.293823,196.460266 367.346497,198.731979 
	C365.222229,203.826004 357.877075,204.889709 354.230682,200.595810 
	C352.071136,198.052704 350.890533,194.678268 349.122742,191.353821 
z"/>
<path fill="#C18C5D" opacity="1.000000" stroke="none" 
	d="
M165.335785,202.048828 
	C165.223785,201.823685 165.374390,201.522263 165.753113,201.098114 
	C165.853622,201.307755 165.725998,201.640152 165.335785,202.048828 
z"/>
<path fill="#9CD9EE" opacity="1.000000" stroke="none" 
	d="
M232.955841,199.948105 
	C231.925323,204.069000 231.581940,208.527710 229.749710,212.254471 
	C219.907303,232.273849 213.949081,253.310043 211.914185,275.506042 
	C211.523117,279.771698 211.117050,284.111481 209.989929,288.217194 
	C208.113815,295.051239 202.009689,298.803864 195.170990,297.971497 
	C188.862839,297.203705 183.524994,291.718079 184.155853,284.699738 
	C185.173828,273.374817 186.598862,261.982117 189.169754,250.924454 
	C193.540024,232.127457 199.722672,213.838715 210.786804,197.753082 
	C212.671646,195.012802 216.797150,193.813705 220.430573,192.214142 
	C223.536469,197.310287 227.471405,199.879883 232.955841,199.948105 
z"/>
<path fill="#9CD8EE" opacity="1.000000" stroke="none" 
	d="
M219.746689,317.854553 
	C220.157104,323.570068 220.724579,328.901123 216.978836,333.498383 
	C211.766800,339.895294 204.907059,341.596222 197.401886,338.197845 
	C191.048508,335.321045 186.860565,327.028717 188.183060,319.944061 
	C189.685898,311.893250 193.605408,308.181030 201.779648,307.066406 
	C209.854706,305.965271 215.873077,309.469788 219.746689,317.854553 
z"/>
<path fill="#FBFDFE" opacity="1.000000" stroke="none" 
	d="
M233.287689,199.813339 
	C227.471405,199.879883 223.536469,197.310287 220.808304,192.196838 
	C219.466324,183.585022 222.611313,178.090363 229.470703,176.444946 
	C235.445358,175.011734 241.373093,178.644775 243.342499,184.946777 
	C245.331436,191.311249 241.497177,197.120728 233.287689,199.813339 
z"/>
</svg>